<svg width="150" height="150" viewBox="0 0 150 150" fill="none" xmlns="http://www.w3.org/2000/svg">
<g clip-path="url(#clip0_729_73)">
<path d="M2.34375 100.787V30.1706C2.34376 29.4709 2.5004 28.7801 2.8022 28.1488C3.10399 27.5176 3.54328 26.9619 4.08783 26.5225C4.63238 26.0832 5.26839 25.7713 5.94919 25.6098C6.62998 25.4482 7.33831 25.4412 8.02219 25.5891L75 40.0759L141.978 25.5891C142.662 25.4412 143.37 25.4482 144.051 25.6098C144.732 25.7713 145.368 26.0832 145.912 26.5225C146.457 26.9619 146.896 27.5176 147.198 28.1489C147.5 28.7801 147.656 29.471 147.656 30.1707V100.844C147.656 101.919 147.287 102.961 146.61 103.796C145.934 104.631 144.99 105.208 143.939 105.43L75 120.013L6.05752 105.373C5.00685 105.149 4.06468 104.572 3.38865 103.738C2.71262 102.903 2.34375 101.861 2.34375 100.787Z" fill="#52BF96"/>
<path d="M75 122.356C74.8362 122.355 74.673 122.338 74.5125 122.305L5.571 107.666C3.99714 107.326 2.58668 106.459 1.57345 105.207C0.560214 103.956 0.00505539 102.396 1.93893e-06 100.786V30.1712C-0.000777828 29.1215 0.233647 28.085 0.686048 27.1378C1.13845 26.1907 1.79733 25.3569 2.61427 24.6978C3.43121 24.0387 4.38545 23.5711 5.40687 23.3292C6.42828 23.0873 7.49092 23.0774 8.51667 23.3001L75 37.6785L141.486 23.3001C142.511 23.0781 143.573 23.0886 144.594 23.3308C145.615 23.573 146.569 24.0407 147.386 24.6997C148.202 25.3587 148.861 26.1921 149.313 27.139C149.766 28.0858 150 29.1218 150 30.1712V100.845C149.994 102.455 149.438 104.015 148.424 105.266C147.41 106.516 145.999 107.382 144.424 107.721L75.4854 122.305C75.3256 122.338 75.1631 122.355 75 122.356ZM7.02656 27.8274C6.719 27.8274 6.41445 27.8881 6.13036 28.0059C5.84627 28.1238 5.5882 28.2965 5.37094 28.5142C5.15367 28.7319 4.98148 28.9903 4.86421 29.2746C4.74693 29.5589 4.68689 29.8636 4.6875 30.1712V100.786C4.68903 101.323 4.87394 101.843 5.21155 102.26C5.54917 102.677 6.01922 102.966 6.54375 103.079L75 117.618L143.454 103.134C143.978 103.022 144.448 102.733 144.786 102.317C145.124 101.901 145.31 101.381 145.312 100.845V30.1712C145.312 29.8214 145.234 29.476 145.083 29.1604C144.932 28.8447 144.713 28.5668 144.441 28.3469C144.169 28.1271 143.851 27.9708 143.511 27.8897C143.17 27.8085 142.816 27.8045 142.474 27.8778L75.4944 42.366C75.1689 42.4392 74.8311 42.4392 74.5056 42.366L7.52564 27.8778C7.36128 27.8451 7.19415 27.8282 7.02656 27.8274Z" fill="#00623B"/>
<path d="M130 92.7845L75 105.985L19.9998 92.7846C18.9759 92.5388 18.0646 91.9555 17.4127 91.1286C16.7608 90.3018 16.4062 89.2795 16.4063 88.2265V18.1802C16.4062 17.4716 16.5669 16.7722 16.8761 16.1346C17.1854 15.4971 17.6351 14.9379 18.1916 14.4992C18.7481 14.0604 19.3968 13.7536 20.0889 13.6017C20.781 13.4498 21.4986 13.4568 22.1877 13.6222L75 26.2971L127.812 13.6221C128.501 13.4567 129.219 13.4497 129.911 13.6016C130.603 13.7536 131.252 14.0604 131.808 14.4991C132.365 14.9379 132.815 15.497 133.124 16.1346C133.433 16.7722 133.594 17.4716 133.594 18.1802V88.2265C133.594 89.2795 133.239 90.3017 132.587 91.1286C131.935 91.9555 131.024 92.5388 130 92.7845Z" fill="#E0E0E2"/>
<path d="M75 108.33C74.8159 108.329 74.6324 108.307 74.453 108.266L19.4527 95.0637C17.9146 94.6988 16.545 93.8245 15.5665 92.583C14.5879 91.3414 14.0579 89.8055 14.0625 88.2247V18.1823C14.0623 17.119 14.3032 16.0695 14.7671 15.1127C15.231 14.1559 15.9059 13.3168 16.7409 12.6585C17.5759 12.0002 18.5493 11.5398 19.5879 11.312C20.6265 11.0842 21.7033 11.0948 22.7372 11.3432L75 23.886L127.267 11.3433C128.301 11.095 129.378 11.0843 130.416 11.3122C131.454 11.5401 132.427 12.0006 133.262 12.659C134.097 13.3173 134.771 14.1565 135.234 15.1132C135.698 16.0699 135.938 17.1192 135.938 18.1823V88.2247C135.943 89.806 135.412 91.3424 134.433 92.5841C133.454 93.8258 132.084 94.6997 130.545 95.0638L75.5471 108.266C75.3677 108.307 75.1842 108.329 75 108.33ZM21.0869 15.8339C20.4658 15.8359 19.8708 16.0843 19.4326 16.5246C18.9945 16.9649 18.749 17.5611 18.75 18.1823V88.2247C18.7478 88.7515 18.9239 89.2635 19.2497 89.6774C19.5756 90.0914 20.0319 90.3828 20.5445 90.5044L75 103.573L129.456 90.5044C129.968 90.3828 130.425 90.0914 130.75 89.6774C131.076 89.2635 131.252 88.7515 131.25 88.2247V18.1823C131.251 17.8278 131.172 17.4778 131.017 17.1586C130.863 16.8394 130.639 16.5594 130.36 16.3398C130.082 16.1202 129.758 15.9667 129.411 15.891C129.065 15.8153 128.706 15.8192 128.362 15.9026L75.5471 28.5781C75.187 28.6605 74.813 28.6605 74.453 28.5781L21.6408 15.9026C21.4597 15.8572 21.2737 15.8342 21.0869 15.8339Z" fill="#00623B"/>
<path d="M19.9998 92.7846L75 105.985V103.009C75 99.8501 73.9364 96.7832 71.9807 94.3025C70.025 91.8219 67.291 90.072 64.2193 89.3348L16.4062 77.8596V88.2265C16.4063 89.2795 16.7608 90.3018 17.4127 91.1287C18.0646 91.9555 18.9759 92.5388 19.9998 92.7846Z" fill="#AFAEB3"/>
<path d="M75 108.33C74.8159 108.329 74.6324 108.308 74.453 108.266L19.455 95.0639C17.9164 94.6995 16.5463 93.8254 15.5673 92.5838C14.5883 91.3422 14.058 89.806 14.0625 88.2249V77.8611C14.0625 77.5069 14.1429 77.1572 14.2975 76.8385C14.4521 76.5197 14.677 76.2402 14.9552 76.0209C15.2342 75.803 15.5586 75.6504 15.9044 75.5744C16.2501 75.4983 16.6086 75.5007 16.9533 75.5814L64.7667 87.0529C68.3549 87.9059 71.5496 89.9462 73.8326 92.8429C76.1155 95.7395 77.3529 99.3225 77.3438 103.011V105.986C77.3436 106.608 77.0967 107.204 76.6572 107.643C76.2176 108.083 75.6216 108.33 75 108.33ZM18.75 80.832V88.2249C18.7478 88.7517 18.9239 89.2637 19.2497 89.6776C19.5756 90.0916 20.0319 90.383 20.5445 90.5046L72.6563 103.015V103.011C72.662 100.376 71.7779 97.8175 70.1473 95.7487C68.5167 93.68 66.2353 92.2225 63.6727 91.6126L18.75 80.832Z" fill="#00623B"/>
<path d="M75 105.985L130 92.7846C131.024 92.5389 131.935 91.9556 132.587 91.1287C133.239 90.3018 133.594 89.2795 133.594 88.2265V77.8596L85.7807 89.3346C82.709 90.0718 79.975 91.8218 78.0193 94.3025C76.0635 96.7831 75 99.85 75 103.009V105.985Z" fill="#AFAEB3"/>
<path d="M75 108.33C74.3784 108.33 73.7823 108.083 73.3428 107.643C72.9033 107.204 72.6564 106.608 72.6562 105.986V103.011C72.6471 99.3228 73.8841 95.7401 76.1667 92.8435C78.4492 89.947 81.6433 87.9065 85.231 87.053L133.049 75.5813C133.393 75.5013 133.751 75.4992 134.097 75.5752C134.442 75.6512 134.766 75.8035 135.045 76.0208C135.323 76.2401 135.548 76.5196 135.703 76.8384C135.857 77.1571 135.937 77.5068 135.937 77.8611V88.2249C135.942 89.8061 135.412 91.3425 134.433 92.5843C133.454 93.826 132.084 94.6999 130.545 95.0639L75.547 108.266C75.3676 108.307 75.1841 108.329 75 108.33ZM131.25 80.832L86.325 91.6126C83.7628 92.223 81.4819 93.6807 79.8518 95.7494C78.2217 97.8182 77.3379 100.377 77.3437 103.011L129.456 90.5047C129.968 90.3831 130.424 90.0916 130.75 89.6777C131.076 89.2637 131.252 88.7517 131.25 88.2249V80.832ZM88.1424 65.0071C87.57 65.0072 87.0175 64.798 86.5887 64.4188C86.16 64.0397 85.8849 63.5168 85.815 62.9488C85.7452 62.3807 85.8856 61.8068 86.2098 61.3351C86.5339 60.8635 87.0194 60.5267 87.5747 60.3882L120.135 52.2492C120.434 52.1746 120.745 52.1597 121.049 52.2052C121.354 52.2506 121.646 52.3556 121.91 52.5142C122.174 52.6727 122.405 52.8817 122.588 53.1292C122.771 53.3767 122.904 53.6579 122.978 53.9567C123.053 54.2555 123.068 54.566 123.022 54.8705C122.977 55.1751 122.872 55.4677 122.713 55.7317C122.555 55.9956 122.346 56.2258 122.098 56.409C121.851 56.5922 121.569 56.7249 121.271 56.7994L88.71 64.9384C88.5241 64.9835 88.3336 65.0065 88.1424 65.0071ZM88.1424 50.9446C87.57 50.9447 87.0175 50.7355 86.5887 50.3563C86.16 49.9772 85.8849 49.4543 85.815 48.8863C85.7452 48.3182 85.8856 47.7443 86.2098 47.2726C86.5339 46.801 87.0194 46.4642 87.5747 46.3257L120.135 38.1867C120.434 38.1121 120.745 38.0972 121.049 38.1427C121.354 38.1881 121.646 38.2931 121.91 38.4517C122.174 38.6102 122.405 38.8192 122.588 39.0667C122.771 39.3142 122.904 39.5954 122.978 39.8942C123.053 40.193 123.068 40.5035 123.022 40.808C122.977 41.1126 122.872 41.4052 122.713 41.6692C122.555 41.9331 122.346 42.1633 122.098 42.3465C121.851 42.5297 121.569 42.6624 121.271 42.7369L88.71 50.8759C88.5241 50.921 88.3336 50.944 88.1424 50.9446ZM88.1424 36.8821C87.57 36.8822 87.0175 36.673 86.5887 36.2938C86.16 35.9147 85.8849 35.3918 85.815 34.8238C85.7452 34.2557 85.8856 33.6818 86.2098 33.2101C86.5339 32.7385 87.0194 32.4017 87.5747 32.2632L120.135 24.1242C120.739 23.9736 121.377 24.069 121.91 24.3892C122.444 24.7094 122.828 25.2283 122.978 25.8317C123.129 26.4351 123.033 27.0736 122.713 27.6067C122.393 28.1398 121.874 28.5239 121.271 28.6744L88.71 36.8134C88.5241 36.8585 88.3336 36.8815 88.1424 36.8821ZM88.1424 79.0696C87.57 79.0697 87.0175 78.8605 86.5887 78.4813C86.16 78.1022 85.8849 77.5793 85.815 77.0113C85.7452 76.4432 85.8856 75.8693 86.2098 75.3976C86.5339 74.926 87.0194 74.5892 87.5747 74.4507L120.135 66.3117C120.739 66.1611 121.377 66.2565 121.91 66.5767C122.444 66.8969 122.828 67.4158 122.978 68.0192C123.129 68.6226 123.033 69.2611 122.713 69.7942C122.393 70.3273 121.874 70.7114 121.271 70.8619L88.71 79.0009C88.5241 79.046 88.3336 79.069 88.1424 79.0696ZM59.7679 65.0071C59.5759 65.0067 59.3846 64.9837 59.198 64.9384L26.6395 56.7994C26.0361 56.6489 25.5173 56.2648 25.1971 55.7317C24.8768 55.1986 24.7815 54.5601 24.932 53.9567C25.0826 53.3533 25.4667 52.8344 25.9998 52.5142C26.5329 52.194 27.1714 52.0986 27.7748 52.2492L60.3332 60.3882C60.8879 60.5271 61.3727 60.8638 61.6964 61.3352C62.0202 61.8065 62.1605 62.3798 62.091 62.9474C62.0216 63.5149 61.7471 64.0375 61.3192 64.4169C60.8914 64.7962 60.3397 65.0061 59.7679 65.0071ZM59.7679 50.9446C59.5759 50.9442 59.3846 50.9212 59.198 50.8759L26.6395 42.7369C26.3408 42.6624 26.0596 42.5297 25.8121 42.3465C25.5646 42.1633 25.3556 41.9331 25.1971 41.6692C24.8768 41.1361 24.7815 40.4976 24.932 39.8942C25.0066 39.5954 25.1392 39.3142 25.3224 39.0667C25.5056 38.8192 25.7358 38.6102 25.9998 38.4517C26.5329 38.1315 27.1714 38.0361 27.7748 38.1867L60.3332 46.3257C60.8879 46.4646 61.3727 46.8013 61.6964 47.2727C62.0202 47.744 62.1605 48.3173 62.091 48.8849C62.0216 49.4524 61.7471 49.975 61.3192 50.3544C60.8914 50.7337 60.3397 50.9436 59.7679 50.9446ZM59.7679 36.8821C59.5759 36.8817 59.3846 36.8586 59.198 36.8134L26.6395 28.6744C26.3408 28.5999 26.0596 28.4672 25.8121 28.284C25.5646 28.1008 25.3556 27.8706 25.1971 27.6067C24.8768 27.0736 24.7815 26.4351 24.932 25.8317C25.0826 25.2283 25.4667 24.7094 25.9998 24.3892C26.5329 24.069 27.1714 23.9736 27.7748 24.1242L60.3332 32.2632C60.8879 32.4021 61.3727 32.7388 61.6964 33.2101C62.0202 33.6815 62.1605 34.2548 62.091 34.8224C62.0216 35.3899 61.7471 35.9125 61.3192 36.2919C60.8914 36.6712 60.3397 36.8811 59.7679 36.8821ZM59.7679 79.0696C59.5759 79.0692 59.3846 79.0461 59.198 79.0009L26.6395 70.8619C26.3408 70.7874 26.0596 70.6547 25.8121 70.4715C25.5646 70.2883 25.3556 70.0581 25.1971 69.7942C24.8768 69.2611 24.7815 68.6226 24.932 68.0192C25.0066 67.7204 25.1392 67.4392 25.3224 67.1917C25.5056 66.9442 25.7358 66.7352 25.9998 66.5767C26.5329 66.2565 27.1714 66.1611 27.7748 66.3117L60.3332 74.4507C60.8879 74.5896 61.3727 74.9263 61.6964 75.3976C62.0202 75.869 62.1605 76.4423 62.091 77.0099C62.0216 77.5774 61.7471 78.1 61.3192 78.4794C60.8914 78.8587 60.3397 79.0686 59.7679 79.0696Z" fill="#00623B"/>
<path d="M75 108.33C74.6922 108.33 74.3873 108.27 74.1029 108.152C73.8184 108.034 73.56 107.861 73.3423 107.644C73.1246 107.426 72.952 107.168 72.8343 106.883C72.7166 106.599 72.6561 106.294 72.6563 105.986V26.2986C72.6563 25.677 72.9032 25.0808 73.3427 24.6413C73.7823 24.2018 74.3784 23.9548 75 23.9548C75.6216 23.9548 76.2177 24.2018 76.6573 24.6413C77.0968 25.0808 77.3438 25.677 77.3438 26.2986V105.986C77.3439 106.294 77.2834 106.599 77.1657 106.883C77.048 107.168 76.8753 107.426 76.6577 107.644C76.44 107.861 76.1816 108.034 75.8971 108.152C75.6127 108.27 75.3078 108.33 75 108.33Z" fill="#00623B"/>
<path d="M134.03 136.336L75.0938 119.982L139.971 106.269V131.819C139.971 132.542 139.804 133.254 139.483 133.902C139.162 134.549 138.695 135.113 138.12 135.551C137.545 135.988 136.877 136.286 136.167 136.423C135.457 136.559 134.726 136.529 134.03 136.336Z" fill="#52BF96"/>
<path d="M135.301 138.854C134.659 138.852 134.02 138.765 133.402 138.593L74.4668 122.241C73.9609 122.101 73.5167 121.795 73.2054 121.373C72.8941 120.95 72.7338 120.435 72.7502 119.91C72.7665 119.386 72.9586 118.882 73.2956 118.479C73.6326 118.077 74.0951 117.799 74.6087 117.691L139.485 103.977C139.827 103.907 140.179 103.913 140.517 103.994C140.856 104.076 141.173 104.231 141.445 104.448C141.716 104.668 141.935 104.946 142.085 105.261C142.236 105.576 142.314 105.921 142.314 106.27V131.818C142.315 133.68 141.576 135.466 140.262 136.785C138.947 138.104 137.163 138.848 135.301 138.854ZM134.656 134.079C135.004 134.176 135.37 134.19 135.725 134.122C136.08 134.054 136.415 133.904 136.702 133.685C136.99 133.466 137.223 133.184 137.383 132.86C137.544 132.536 137.627 132.179 137.627 131.818V109.163L84.9702 120.291L134.656 134.079Z" fill="#00623B"/>
<path d="M16.0641 136.336L75.0001 119.982L10.123 106.236V131.819C10.123 132.542 10.2901 133.254 10.6111 133.902C10.9321 134.549 11.3984 135.113 11.9736 135.551C12.5488 135.988 13.2173 136.286 13.9269 136.423C14.6364 136.559 15.3679 136.529 16.0641 136.336Z" fill="#52BF96"/>
<path d="M14.7927 138.853C12.9309 138.847 11.1476 138.102 9.83328 136.784C8.51893 135.465 7.78055 133.679 7.77979 131.818V106.238C7.77945 105.889 7.85716 105.544 8.00721 105.229C8.15725 104.914 8.37586 104.636 8.64703 104.416C8.9182 104.196 9.23508 104.04 9.57449 103.958C9.91391 103.877 10.2673 103.872 10.6087 103.944L75.4853 117.691C75.999 117.799 76.4614 118.077 76.7984 118.479C77.1354 118.882 77.3275 119.386 77.3439 119.91C77.3602 120.435 77.1999 120.95 76.8886 121.373C76.5773 121.795 76.1331 122.101 75.6272 122.241L16.6902 138.593C16.0723 138.765 15.4341 138.852 14.7927 138.853ZM12.4673 109.131V131.818C12.4674 132.179 12.5508 132.535 12.7112 132.859C12.8715 133.182 13.1044 133.464 13.3917 133.683C13.679 133.902 14.0129 134.052 14.3675 134.12C14.722 134.189 15.0877 134.175 15.4359 134.079L65.1329 120.291L12.4673 109.131Z" fill="#00623B"/>
</g>
<defs>
<clipPath id="clip0_729_73">
<rect width="150" height="150" fill="white"/>
</clipPath>
</defs>
</svg>
