<svg width="150" height="150" viewBox="0 0 150 150" fill="none" xmlns="http://www.w3.org/2000/svg">
<g clip-path="url(#clip0_729_87)">
<path d="M25.7812 119.531V11.7188C25.7812 9.23235 26.769 6.84778 28.5271 5.08962C30.2853 3.33147 32.6698 2.34375 35.1562 2.34375H124.219V110.156" fill="#52BF96"/>
<path d="M25.7813 121.875C25.4734 121.875 25.1686 121.815 24.8841 121.697C24.5997 121.579 24.3412 121.407 24.1236 121.189C23.9059 120.971 23.7333 120.713 23.6155 120.428C23.4978 120.144 23.4373 119.839 23.4375 119.531V11.7188C23.4408 8.61175 24.6765 5.63293 26.8734 3.43595C29.0704 1.23896 32.0492 0.00326382 35.1562 3.94713e-07H124.219C124.527 -0.000178306 124.831 0.0603226 125.116 0.178044C125.4 0.295765 125.659 0.468397 125.876 0.68607C126.094 0.903743 126.267 1.16219 126.384 1.44662C126.502 1.73106 126.563 2.03591 126.562 2.34375V110.156C126.562 110.778 126.316 111.374 125.876 111.814C125.436 112.253 124.84 112.5 124.219 112.5C123.597 112.5 123.001 112.253 122.561 111.814C122.122 111.374 121.875 110.778 121.875 110.156V4.6875H35.1562C33.2921 4.68954 31.5048 5.43098 30.1867 6.74915C28.8685 8.06733 28.127 9.85457 28.125 11.7188V119.531C28.1252 119.839 28.0647 120.144 27.947 120.428C27.8292 120.713 27.6566 120.971 27.4389 121.189C27.2213 121.407 26.9628 121.579 26.6784 121.697C26.3939 121.815 26.0891 121.875 25.7813 121.875Z" fill="#00623B"/>
<path d="M35.1562 110.156H124.219V133.594H35.1562C32.6698 133.594 30.2853 132.606 28.5271 130.848C26.769 129.09 25.7813 126.705 25.7812 124.219V119.531C25.7812 117.045 26.769 114.66 28.5271 112.902C30.2853 111.144 32.6698 110.156 35.1562 110.156Z" fill="#E0E0E2"/>
<path d="M124.219 135.938H35.1562C32.0492 135.934 29.0704 134.699 26.8734 132.502C24.6765 130.305 23.4408 127.326 23.4375 124.219V119.531C23.4408 116.424 24.6765 113.445 26.8734 111.248C29.0704 109.051 32.0492 107.816 35.1562 107.813H124.219C124.527 107.812 124.831 107.873 125.116 107.991C125.4 108.108 125.659 108.281 125.876 108.499C126.094 108.716 126.267 108.975 126.384 109.259C126.502 109.544 126.563 109.848 126.562 110.156V133.594C126.563 133.902 126.502 134.206 126.384 134.491C126.267 134.775 126.094 135.034 125.876 135.251C125.659 135.469 125.4 135.642 125.116 135.759C124.831 135.877 124.527 135.938 124.219 135.938ZM35.1562 112.5C33.2921 112.502 31.5048 113.243 30.1867 114.562C28.8685 115.88 28.127 117.667 28.125 119.531V124.219C28.127 126.083 28.8685 127.87 30.1867 129.188C31.5048 130.507 33.2921 131.248 35.1562 131.25H121.875V112.5H35.1562Z" fill="#00623B"/>
<path d="M53.9062 147.656L44.5312 142.969L35.1562 147.656V124.219H53.9062V147.656Z" fill="#E0E0E2"/>
<path d="M53.9063 150C53.5424 150 53.1836 149.915 52.858 149.753L44.5313 145.587L36.2045 149.753C35.8472 149.932 35.45 150.017 35.0507 149.999C34.6514 149.981 34.2634 149.861 33.9234 149.651C33.5834 149.441 33.3029 149.147 33.1084 148.798C32.914 148.449 32.8121 148.056 32.8125 147.656V124.219C32.8123 123.911 32.8728 123.606 32.9905 123.322C33.1083 123.037 33.2809 122.779 33.4986 122.561C33.7162 122.343 33.9747 122.171 34.2591 122.053C34.5436 121.935 34.8484 121.875 35.1563 121.875H53.9063C54.2141 121.875 54.5189 121.935 54.8034 122.053C55.0878 122.171 55.3463 122.343 55.5639 122.561C55.7816 122.779 55.9542 123.037 56.072 123.322C56.1897 123.606 56.2502 123.911 56.25 124.219V147.656C56.2505 147.964 56.1902 148.269 56.0726 148.554C55.955 148.838 55.7824 149.097 55.5646 149.315C55.3469 149.532 55.0883 149.705 54.8037 149.823C54.5192 149.94 54.2142 150 53.9063 150ZM44.5313 140.625C44.8951 140.625 45.254 140.71 45.5795 140.872L51.5625 143.866V126.563H37.5V143.866L43.483 140.872C43.8085 140.71 44.1674 140.625 44.5313 140.625Z" fill="#00623B"/>
<path d="M35.1562 21.0938V86.7188C37.6427 86.7188 40.0272 87.7065 41.7854 89.4646C43.5435 91.2228 44.5312 93.6073 44.5312 96.0938C44.5224 97.7441 44.0735 99.3622 43.2309 100.781H102.082C101.239 99.3622 100.79 97.7441 100.781 96.0938C100.781 93.6073 101.769 91.2228 103.527 89.4646C105.285 87.7065 107.67 86.7188 110.156 86.7188C111.807 86.7276 113.425 87.1765 114.844 88.0191V19.7934C113.425 20.636 111.807 21.0849 110.156 21.0938C107.67 21.0937 105.285 20.106 103.527 18.3479C101.769 16.5897 100.781 14.2052 100.781 11.7188H44.5312C44.5312 14.2052 43.5435 16.5897 41.7854 18.3479C40.0272 20.106 37.6427 21.0937 35.1562 21.0938Z" fill="#E0E0E2"/>
<path d="M102.081 103.125H43.2312C42.8189 103.125 42.4138 103.016 42.057 102.81C41.7001 102.603 41.404 102.306 41.1986 101.949C40.9931 101.591 40.8856 101.186 40.8868 100.773C40.8881 100.361 40.998 99.9563 41.2056 99.6C41.8414 98.5404 42.1805 97.3294 42.1875 96.0938C42.1855 94.2296 41.444 92.4423 40.1258 91.1242C38.8077 89.806 37.0204 89.0645 35.1563 89.0625C34.8484 89.0627 34.5436 89.0022 34.2591 88.8845C33.9747 88.7667 33.7162 88.5941 33.4986 88.3764C33.2809 88.1588 33.1083 87.9003 32.9905 87.6159C32.8728 87.3314 32.8123 87.0266 32.8125 86.7188V21.0938C32.8123 20.7859 32.8728 20.4811 32.9905 20.1966C33.1083 19.9122 33.2809 19.6537 33.4986 19.4361C33.7162 19.2184 33.9747 19.0458 34.2591 18.928C34.5436 18.8103 34.8484 18.7498 35.1563 18.75C37.0204 18.748 38.8077 18.0065 40.1258 16.6883C41.444 15.3702 42.1855 13.5829 42.1875 11.7188C42.1873 11.4109 42.2478 11.1061 42.3655 10.8216C42.4833 10.5372 42.6559 10.2787 42.8736 10.0611C43.0912 9.8434 43.3497 9.67077 43.6341 9.55304C43.9186 9.43532 44.2234 9.37482 44.5312 9.375H100.781C101.089 9.37482 101.394 9.43532 101.678 9.55304C101.963 9.67077 102.221 9.8434 102.439 10.0611C102.657 10.2787 102.829 10.5372 102.947 10.8216C103.065 11.1061 103.125 11.4109 103.125 11.7188C103.127 13.5829 103.868 15.3702 105.187 16.6883C106.505 18.0065 108.292 18.748 110.156 18.75C111.392 18.743 112.602 18.4047 113.662 17.7703C114.019 17.5622 114.423 17.4517 114.836 17.4501C115.248 17.4485 115.653 17.5557 116.011 17.761C116.369 17.9663 116.666 18.2624 116.872 18.6193C117.079 18.9762 117.188 19.3813 117.188 19.7937V88.0188C117.188 88.4312 117.079 88.8363 116.872 89.1932C116.666 89.5501 116.369 89.8461 116.011 90.0514C115.653 90.2567 115.248 90.364 114.836 90.3623C114.423 90.3607 114.019 90.2502 113.662 90.0421C112.602 89.4078 111.392 89.0695 110.156 89.0625C108.292 89.0645 106.505 89.806 105.187 91.1242C103.868 92.4423 103.127 94.2296 103.125 96.0938C103.132 97.3294 103.471 98.5404 104.107 99.6C104.314 99.9563 104.424 100.361 104.426 100.773C104.427 101.186 104.319 101.591 104.114 101.949C103.908 102.306 103.612 102.603 103.256 102.81C102.899 103.016 102.494 103.125 102.081 103.125ZM46.6301 98.4375H98.6824C98.5194 97.6669 98.4374 96.8814 98.4375 96.0938C98.4408 92.9867 99.6765 90.0079 101.873 87.8109C104.07 85.614 107.049 84.3783 110.156 84.375C110.944 84.375 111.729 84.4563 112.5 84.6176V23.1949C111.729 23.3562 110.944 23.4375 110.156 23.4375C107.456 23.434 104.839 22.4996 102.748 20.7919C100.656 19.0841 99.217 16.7075 98.6732 14.0625H46.6393C46.1753 16.3124 45.0626 18.3771 43.4384 20.0017C41.8142 21.6263 39.7498 22.7396 37.5 23.2041V84.6084C40.145 85.153 42.5215 86.5926 44.2291 88.6846C45.9367 90.7766 46.8712 93.3933 46.875 96.0938C46.8751 96.8814 46.7931 97.6669 46.6301 98.4375Z" fill="#00623B"/>
<path d="M58.9519 36.0018C61.9573 34.2868 65.3099 33.2697 68.7616 33.0259C66.2504 36.6363 64.8187 40.8869 64.6338 45.2809C64.4488 49.6748 65.5183 54.0307 67.7173 57.8394C69.9162 61.648 73.1537 64.7522 77.0515 66.789C80.9493 68.8258 85.3462 69.7112 89.7285 69.3417C87.7502 72.2198 85.1493 74.6157 82.1186 76.3514C79.088 78.0871 75.7054 79.1182 72.2219 79.3681C68.7383 79.618 65.2432 79.0805 61.9958 77.7952C58.7484 76.5099 55.8321 74.51 53.4631 71.9438C51.0942 69.3775 49.3334 66.3108 48.3115 62.9712C47.2896 59.6315 47.0327 56.1046 47.56 52.6522C48.0872 49.1997 49.385 45.9102 51.3571 43.0278C53.3292 40.1454 55.925 37.744 58.9519 36.0018Z" fill="#E0E0E2"/>
<path d="M70.6443 81.8069C64.9969 81.8188 59.5035 79.9651 55.0179 76.5339C50.5322 73.1027 47.3054 68.286 45.8388 62.8323C44.3721 57.3785 44.7478 51.5931 46.9073 46.3748C49.0669 41.1565 52.8895 36.7975 57.7812 33.9752C61.0866 32.0794 64.7786 30.9572 68.5798 30.693C69.0209 30.6583 69.4627 30.7493 69.8542 30.9554C70.2456 31.1614 70.5707 31.4742 70.7918 31.8574C71.0128 32.2406 71.1208 32.6786 71.1032 33.1206C71.0856 33.5627 70.9432 33.9907 70.6924 34.3551C68.4326 37.601 67.1437 41.4233 66.9766 45.3748C66.8094 49.3264 67.7709 53.2439 69.7486 56.669C71.7262 60.0942 74.6383 62.8854 78.1441 64.7162C81.6499 66.547 85.6046 67.3417 89.5455 67.0074C89.9874 66.966 90.4318 67.0539 90.8247 67.2603C91.2176 67.4667 91.5422 67.7828 91.7588 68.1701C91.9801 68.5535 92.0883 68.9917 92.0709 69.434C92.0535 69.8764 91.9111 70.3047 91.6604 70.6695C89.3398 74.1075 86.209 76.9218 82.544 78.8641C78.8789 80.8064 74.7922 81.8169 70.6443 81.8069ZM64.3341 36.2182C62.866 36.6585 61.4536 37.2668 60.1249 38.0309C55.3197 40.8127 51.815 45.3881 50.3809 50.7521C48.9468 56.116 49.7004 61.8299 52.4763 66.6386C55.2521 71.4473 59.8232 74.9575 65.1854 76.3983C70.5476 77.839 76.2624 77.0924 81.0745 74.3225C82.4032 73.5537 83.6382 72.6335 84.7549 71.5803C80.8186 71.112 77.0458 69.7322 73.7361 67.5507C70.4263 65.3692 67.6709 62.446 65.6885 59.0132C63.7062 55.5805 62.5516 51.7328 62.3165 47.7757C62.0814 43.8187 62.7722 39.8615 64.3341 36.2182Z" fill="#00623B"/>
<path d="M87.3704 41.236L91.0594 33.5767L94.6125 41.3017L102.698 42.6142L96.7876 48.5438L98.0954 57.0142L90.8907 52.9548L83.611 56.8735L85.0688 48.436L79.261 42.3892L87.3704 41.236Z" fill="#E0E0E2"/>
<path d="M98.0965 59.3584C97.6931 59.358 97.2967 59.254 96.9452 59.0562L90.8638 55.6321L84.7252 58.9418C84.3381 59.1505 83.9002 59.2461 83.4613 59.2177C83.0225 59.1893 82.6005 59.0381 82.2436 58.7812C81.8867 58.5243 81.6092 58.1722 81.4429 57.7651C81.2767 57.358 81.2283 56.9123 81.3033 56.479L82.5575 49.2051L77.5701 44.0141C77.2714 43.7027 77.0644 43.3149 76.9719 42.8934C76.8794 42.4719 76.9049 42.0331 77.0457 41.6252C77.1865 41.2173 77.437 40.8561 77.7698 40.5814C78.1026 40.3067 78.5047 40.1291 78.9319 40.0682L85.8006 39.0932L88.9455 32.5609C89.1374 32.1635 89.4373 31.8283 89.8109 31.5935C90.1846 31.3587 90.6168 31.2339 91.058 31.2334H91.0787C91.5233 31.2373 91.9575 31.3677 92.3308 31.6092C92.7041 31.8508 93.0009 32.1935 93.1866 32.5975L96.2195 39.1893L103.074 40.3016C103.5 40.3702 103.898 40.5549 104.225 40.8353C104.553 41.1158 104.796 41.4811 104.929 41.8911C105.062 42.3011 105.079 42.7397 104.978 43.1588C104.877 43.5778 104.663 43.9609 104.358 44.2659L99.2841 49.3608L100.413 56.6575C100.464 56.9916 100.443 57.3328 100.35 57.6579C100.258 57.9829 100.096 58.284 99.8756 58.5406C99.6555 58.7972 99.3826 59.0031 99.0754 59.1443C98.7683 59.2854 98.4345 59.3585 98.0965 59.3584ZM90.889 50.6105C91.2923 50.6105 91.6888 50.7146 92.0402 50.9126L95.0432 52.6063L94.471 48.9032C94.4147 48.5402 94.4448 48.169 94.5589 47.8198C94.6731 47.4706 94.868 47.1533 95.1279 46.8936L97.8126 44.1974L94.2375 43.6161C93.8583 43.5553 93.4999 43.4019 93.1941 43.1696C92.8884 42.9372 92.6446 42.6331 92.4844 42.284L91.0104 39.0797L89.4815 42.252C89.314 42.5989 89.0637 42.8993 88.7528 43.1268C88.4419 43.3543 88.0798 43.5018 87.6984 43.5564L84.121 44.0645L86.7601 46.8111C87.0137 47.0768 87.2017 47.3981 87.309 47.7495C87.4163 48.1008 87.44 48.4723 87.3781 48.8344L86.7417 52.5285L89.7767 50.8898C90.1185 50.7058 90.5008 50.6098 90.889 50.6105Z" fill="#00623B"/>
</g>
<defs>
<clipPath id="clip0_729_87">
<rect width="150" height="150" fill="white"/>
</clipPath>
</defs>
</svg>
