<svg width="150" height="150" viewBox="0 0 150 150" fill="none" xmlns="http://www.w3.org/2000/svg">
<g clip-path="url(#clip0_729_100)">
<path d="M16.4063 124.219V115.5C16.3944 114.349 16.1883 113.208 15.7969 112.125L4.54688 83.0625C3.09116 79.278 2.34435 75.2579 2.34376 71.2031V46.875C2.34252 45.9513 2.52355 45.0364 2.87646 44.1828C3.22938 43.3292 3.74725 42.5536 4.40041 41.9004C5.05357 41.2472 5.82918 40.7294 6.6828 40.3765C7.53643 40.0235 8.4513 39.8425 9.37501 39.8438C11.1123 39.8396 12.7868 40.4926 14.0625 41.6719V18.75C14.0625 16.8852 14.8033 15.0968 16.1219 13.7782C17.4405 12.4595 19.229 11.7188 21.0938 11.7188C22.9586 11.7188 24.747 12.4595 26.0656 13.7782C27.3842 15.0968 28.125 16.8852 28.125 18.75V9.375C28.125 7.5102 28.8658 5.72177 30.1844 4.40316C31.503 3.08454 33.2915 2.34375 35.1563 2.34375C37.0211 2.34375 38.8095 3.08454 40.1281 4.40316C41.4467 5.72177 42.1875 7.5102 42.1875 9.375V14.0625C42.1875 12.1977 42.9283 10.4093 44.2469 9.09066C45.5655 7.77204 47.354 7.03125 49.2188 7.03125C51.0836 7.03125 52.872 7.77204 54.1906 9.09066C55.5092 10.4093 56.25 12.1977 56.25 14.0625V23.4375C56.25 21.5727 56.9908 19.7843 58.3094 18.4657C59.628 17.147 61.4165 16.4062 63.2813 16.4062C65.1461 16.4062 66.9345 17.147 68.2531 18.4657C69.5717 19.7843 70.3125 21.5727 70.3125 23.4375V83.2313C70.3124 88.6715 69.8387 94.1013 68.8969 99.4594L64.4766 124.603L16.4063 124.219Z" fill="#E0E0E2"/>
<path d="M28.125 46.875C27.5034 46.875 26.9073 46.6281 26.4677 46.1885C26.0282 45.749 25.7812 45.1529 25.7812 44.5312V18.75C25.7812 17.5068 25.2874 16.3145 24.4083 15.4354C23.5292 14.5564 22.337 14.0625 21.0938 14.0625C19.8505 14.0625 18.6583 14.5564 17.7792 15.4354C16.9001 16.3145 16.4063 17.5068 16.4062 18.75V41.6719C16.4062 42.2935 16.1593 42.8896 15.7198 43.3292C15.2802 43.7687 14.6841 44.0156 14.0625 44.0156C13.4409 44.0156 12.8448 43.7687 12.4052 43.3292C11.9657 42.8896 11.7188 42.2935 11.7188 41.6719V18.75C11.7188 16.2636 12.7065 13.879 14.4646 12.1209C16.2228 10.3627 18.6073 9.375 21.0938 9.375C23.5802 9.375 25.9647 10.3627 27.7229 12.1209C29.481 13.879 30.4687 16.2636 30.4688 18.75V44.5312C30.4688 45.1529 30.2218 45.749 29.7823 46.1885C29.3427 46.6281 28.7466 46.875 28.125 46.875Z" fill="#00623B"/>
<path d="M42.1875 46.875C41.5659 46.875 40.9698 46.6281 40.5302 46.1885C40.0907 45.749 39.8438 45.1529 39.8438 44.5312V9.375C39.8438 8.1318 39.3499 6.93951 38.4708 6.06044C37.5917 5.18136 36.3995 4.6875 35.1562 4.6875C33.913 4.6875 32.7208 5.18136 31.8417 6.06044C30.9626 6.93951 30.4688 8.1318 30.4688 9.375V44.5312C30.4688 45.1529 30.2218 45.749 29.7823 46.1885C29.3427 46.6281 28.7466 46.875 28.125 46.875C27.5034 46.875 26.9073 46.6281 26.4677 46.1885C26.0282 45.749 25.7812 45.1529 25.7812 44.5312V9.375C25.7812 6.8886 26.769 4.50403 28.5271 2.74587C30.2853 0.987721 32.6698 0 35.1562 0C37.6427 0 40.0272 0.987721 41.7854 2.74587C43.5435 4.50403 44.5313 6.8886 44.5312 9.375V44.5312C44.5312 45.1529 44.2843 45.749 43.8448 46.1885C43.4052 46.6281 42.8091 46.875 42.1875 46.875Z" fill="#00623B"/>
<path d="M56.25 51.5625C55.6284 51.5625 55.0323 51.3156 54.5927 50.876C54.1532 50.4365 53.9062 49.8404 53.9062 49.2188V14.0625C53.9062 12.8193 53.4124 11.627 52.5333 10.7479C51.6542 9.86886 50.462 9.375 49.2188 9.375C47.9755 9.375 46.7833 9.86886 45.9042 10.7479C45.0251 11.627 44.5312 12.8193 44.5312 14.0625V49.2188C44.5312 49.8404 44.2843 50.4365 43.8448 50.876C43.4052 51.3156 42.8091 51.5625 42.1875 51.5625C41.5659 51.5625 40.9698 51.3156 40.5302 50.876C40.0907 50.4365 39.8438 49.8404 39.8438 49.2188V14.0625C39.8438 11.5761 40.8315 9.19153 42.5896 7.43337C44.3478 5.67522 46.7323 4.6875 49.2188 4.6875C51.7052 4.6875 54.0897 5.67522 55.8479 7.43337C57.606 9.19153 58.5938 11.5761 58.5938 14.0625V49.2188C58.5938 49.8404 58.3468 50.4365 57.9073 50.876C57.4677 51.3156 56.8716 51.5625 56.25 51.5625Z" fill="#00623B"/>
<path d="M70.3125 60.9375C69.6909 60.9375 69.0948 60.6906 68.6552 60.251C68.2157 59.8115 67.9688 59.2154 67.9688 58.5938V23.4375C67.9688 22.1943 67.4749 21.002 66.5958 20.1229C65.7167 19.2439 64.5245 18.75 63.2812 18.75C62.038 18.75 60.8458 19.2439 59.9667 20.1229C59.0876 21.002 58.5938 22.1943 58.5938 23.4375V58.5938C58.5938 59.2154 58.3468 59.8115 57.9073 60.251C57.4677 60.6906 56.8716 60.9375 56.25 60.9375C55.6284 60.9375 55.0323 60.6906 54.5927 60.251C54.1532 59.8115 53.9062 59.2154 53.9062 58.5938V23.4375C53.9062 20.9511 54.894 18.5665 56.6521 16.8084C58.4103 15.0502 60.7948 14.0625 63.2812 14.0625C65.7677 14.0625 68.1522 15.0502 69.9104 16.8084C71.6685 18.5665 72.6562 20.9511 72.6562 23.4375V58.5938C72.6562 59.2154 72.4093 59.8115 71.9698 60.251C71.5302 60.6906 70.9341 60.9375 70.3125 60.9375Z" fill="#00623B"/>
<path d="M64.4859 126.947C64.3476 126.946 64.2097 126.933 64.0734 126.909C63.462 126.801 62.9187 126.454 62.5627 125.945C62.2068 125.436 62.0673 124.807 62.175 124.195L66.5906 99.0516C67.5076 93.828 67.9687 88.5347 67.9688 83.2313V58.5938C67.9688 57.9721 68.2157 57.376 68.6552 56.9365C69.0948 56.4969 69.6909 56.25 70.3125 56.25C70.9341 56.25 71.5303 56.4969 71.9698 56.9365C72.4093 57.376 72.6563 57.9721 72.6563 58.5938V83.2313C72.6543 88.8066 72.1681 94.3713 71.2031 99.8625L66.7875 125.006C66.6937 125.549 66.4114 126.041 65.9904 126.396C65.5694 126.751 65.0366 126.946 64.4859 126.947ZM16.4063 126.562C15.7847 126.562 15.1885 126.316 14.749 125.876C14.3094 125.436 14.0625 124.84 14.0625 124.219V115.5C14.062 114.632 13.8999 113.772 13.5844 112.964L2.36251 83.8922C0.798271 79.8528 -0.00279046 75.5582 7.30327e-06 71.2266V46.875C7.30327e-06 44.3886 0.987728 42.004 2.74588 40.2459C4.50403 38.4877 6.8886 37.5 9.37501 37.5C11.8614 37.5 14.246 38.4877 16.0041 40.2459C17.7623 42.004 18.75 44.3886 18.75 46.875V66.5156L23.625 68.9531C27.805 71.0251 31.3206 74.2271 33.773 78.1957C36.2255 82.1644 37.5166 86.741 37.5 91.4062C37.5 92.0279 37.2531 92.624 36.8135 93.0635C36.374 93.5031 35.7779 93.75 35.1563 93.75C34.5347 93.75 33.9385 93.5031 33.499 93.0635C33.0594 92.624 32.8125 92.0279 32.8125 91.4062C32.8255 87.6127 31.7753 83.8915 29.7811 80.6644C27.7869 77.4374 24.9284 74.8336 21.5297 73.1484L15.3563 70.0641C14.9678 69.8688 14.6411 69.5695 14.4127 69.1996C14.1843 68.8296 14.0631 68.4035 14.0625 67.9688V46.875C14.0625 45.6318 13.5686 44.4395 12.6896 43.5604C11.8105 42.6814 10.6182 42.1875 9.37501 42.1875C8.13181 42.1875 6.93952 42.6814 6.06044 43.5604C5.18137 44.4395 4.68751 45.6318 4.68751 46.875V71.2266C4.68586 74.9811 5.38042 78.7034 6.73594 82.2047L17.9625 111.272C18.4838 112.621 18.7508 114.054 18.75 115.5V124.219C18.75 124.84 18.5031 125.436 18.0635 125.876C17.624 126.316 17.0279 126.562 16.4063 126.562Z" fill="#00623B"/>
<path d="M65.625 124.219H18.75C16.1612 124.219 14.0625 126.317 14.0625 128.906V142.969C14.0625 145.558 16.1612 147.656 18.75 147.656H65.625C68.2138 147.656 70.3125 145.558 70.3125 142.969V128.906C70.3125 126.317 68.2138 124.219 65.625 124.219Z" fill="#52BF96"/>
<path d="M65.625 150H18.75C16.886 149.998 15.099 149.256 13.7809 147.938C12.4628 146.62 11.7212 144.833 11.7188 142.969V128.906C11.7212 127.042 12.4628 125.255 13.7809 123.937C15.099 122.619 16.886 121.877 18.75 121.875H65.625C67.489 121.877 69.276 122.619 70.5941 123.937C71.9122 125.255 72.6538 127.042 72.6562 128.906V142.969C72.6538 144.833 71.9122 146.62 70.5941 147.938C69.276 149.256 67.489 149.998 65.625 150ZM18.75 126.562C18.1284 126.562 17.5323 126.809 17.0927 127.249C16.6532 127.689 16.4062 128.285 16.4062 128.906V142.969C16.4062 143.59 16.6532 144.186 17.0927 144.626C17.5323 145.066 18.1284 145.312 18.75 145.312H65.625C66.2466 145.312 66.8427 145.066 67.2823 144.626C67.7218 144.186 67.9688 143.59 67.9688 142.969V128.906C67.9688 128.285 67.7218 127.689 67.2823 127.249C66.8427 126.809 66.2466 126.562 65.625 126.562H18.75Z" fill="#00623B"/>
<path d="M133.594 124.219V115.5C133.606 114.349 133.812 113.208 134.203 112.125L145.453 83.0625C146.909 79.278 147.656 75.2579 147.656 71.2031V46.875C147.657 45.9513 147.476 45.0364 147.124 44.1828C146.771 43.3292 146.253 42.5536 145.6 41.9004C144.946 41.2472 144.171 40.7294 143.317 40.3765C142.464 40.0235 141.549 39.8425 140.625 39.8438C138.888 39.8396 137.213 40.4926 135.938 41.6719V18.75C135.938 16.8852 135.197 15.0968 133.878 13.7782C132.559 12.4595 130.771 11.7188 128.906 11.7188C127.041 11.7188 125.253 12.4595 123.934 13.7782C122.616 15.0968 121.875 16.8852 121.875 18.75V9.375C121.875 7.5102 121.134 5.72177 119.816 4.40316C118.497 3.08454 116.709 2.34375 114.844 2.34375C112.979 2.34375 111.191 3.08454 109.872 4.40316C108.553 5.72177 107.812 7.5102 107.812 9.375V14.0625C107.812 12.1977 107.072 10.4093 105.753 9.09066C104.434 7.77204 102.646 7.03125 100.781 7.03125C98.9164 7.03125 97.128 7.77204 95.8094 9.09066C94.4908 10.4093 93.75 12.1977 93.75 14.0625V23.4375C93.75 21.5727 93.0092 19.7843 91.6906 18.4657C90.372 17.147 88.5836 16.4062 86.7188 16.4062C84.8539 16.4062 83.0655 17.147 81.7469 18.4657C80.4283 19.7843 79.6875 21.5727 79.6875 23.4375V83.2313C79.6876 88.6715 80.1613 94.1013 81.1031 99.4594L85.5234 124.603L133.594 124.219Z" fill="#E0E0E2"/>
<path d="M121.875 46.875C122.497 46.875 123.093 46.6281 123.532 46.1885C123.972 45.749 124.219 45.1529 124.219 44.5312V18.75C124.219 17.5068 124.713 16.3145 125.592 15.4354C126.471 14.5564 127.663 14.0625 128.906 14.0625C130.149 14.0625 131.342 14.5564 132.221 15.4354C133.1 16.3145 133.594 17.5068 133.594 18.75V41.6719C133.594 42.2935 133.841 42.8896 134.28 43.3292C134.72 43.7687 135.316 44.0156 135.938 44.0156C136.559 44.0156 137.155 43.7687 137.595 43.3292C138.034 42.8896 138.281 42.2935 138.281 41.6719V18.75C138.281 16.2636 137.294 13.879 135.535 12.1209C133.777 10.3627 131.393 9.375 128.906 9.375C126.42 9.375 124.035 10.3627 122.277 12.1209C120.519 13.879 119.531 16.2636 119.531 18.75V44.5312C119.531 45.1529 119.778 45.749 120.218 46.1885C120.657 46.6281 121.253 46.875 121.875 46.875Z" fill="#00623B"/>
<path d="M107.812 46.875C108.434 46.875 109.03 46.6281 109.47 46.1885C109.909 45.749 110.156 45.1529 110.156 44.5312V9.375C110.156 8.1318 110.65 6.93951 111.529 6.06044C112.408 5.18136 113.601 4.6875 114.844 4.6875C116.087 4.6875 117.279 5.18136 118.158 6.06044C119.037 6.93951 119.531 8.1318 119.531 9.375V44.5312C119.531 45.1529 119.778 45.749 120.218 46.1885C120.657 46.6281 121.253 46.875 121.875 46.875C122.497 46.875 123.093 46.6281 123.532 46.1885C123.972 45.749 124.219 45.1529 124.219 44.5312V9.375C124.219 6.8886 123.231 4.50403 121.473 2.74587C119.715 0.987721 117.33 0 114.844 0C112.357 0 109.973 0.987721 108.215 2.74587C106.456 4.50403 105.469 6.8886 105.469 9.375V44.5312C105.469 45.1529 105.716 45.749 106.155 46.1885C106.595 46.6281 107.191 46.875 107.812 46.875Z" fill="#00623B"/>
<path d="M93.75 51.5625C94.3716 51.5625 94.9677 51.3156 95.4073 50.876C95.8468 50.4365 96.0938 49.8404 96.0938 49.2188V14.0625C96.0938 12.8193 96.5876 11.627 97.4667 10.7479C98.3458 9.86886 99.538 9.375 100.781 9.375C102.024 9.375 103.217 9.86886 104.096 10.7479C104.975 11.627 105.469 12.8193 105.469 14.0625V49.2188C105.469 49.8404 105.716 50.4365 106.155 50.876C106.595 51.3156 107.191 51.5625 107.812 51.5625C108.434 51.5625 109.03 51.3156 109.47 50.876C109.909 50.4365 110.156 49.8404 110.156 49.2188V14.0625C110.156 11.5761 109.169 9.19153 107.41 7.43337C105.652 5.67522 103.268 4.6875 100.781 4.6875C98.2948 4.6875 95.9103 5.67522 94.1521 7.43337C92.394 9.19153 91.4062 11.5761 91.4062 14.0625V49.2188C91.4062 49.8404 91.6532 50.4365 92.0927 50.876C92.5323 51.3156 93.1284 51.5625 93.75 51.5625Z" fill="#00623B"/>
<path d="M79.6875 60.9375C80.3091 60.9375 80.9052 60.6906 81.3448 60.251C81.7843 59.8115 82.0312 59.2154 82.0312 58.5938V23.4375C82.0312 22.1943 82.5251 21.002 83.4042 20.1229C84.2833 19.2439 85.4755 18.75 86.7188 18.75C87.962 18.75 89.1542 19.2439 90.0333 20.1229C90.9124 21.002 91.4062 22.1943 91.4062 23.4375V58.5938C91.4062 59.2154 91.6532 59.8115 92.0927 60.251C92.5323 60.6906 93.1284 60.9375 93.75 60.9375C94.3716 60.9375 94.9677 60.6906 95.4073 60.251C95.8468 59.8115 96.0938 59.2154 96.0938 58.5938V23.4375C96.0938 20.9511 95.106 18.5665 93.3479 16.8084C91.5897 15.0502 89.2052 14.0625 86.7188 14.0625C84.2323 14.0625 81.8478 15.0502 80.0896 16.8084C78.3315 18.5665 77.3438 20.9511 77.3438 23.4375V58.5938C77.3438 59.2154 77.5907 59.8115 78.0302 60.251C78.4698 60.6906 79.0659 60.9375 79.6875 60.9375Z" fill="#00623B"/>
<path d="M85.5141 126.947C85.6524 126.946 85.7903 126.933 85.9266 126.909C86.538 126.801 87.0813 126.454 87.4373 125.945C87.7932 125.436 87.9327 124.807 87.825 124.195L83.4094 99.0516C82.4924 93.828 82.0313 88.5347 82.0312 83.2313V58.5938C82.0312 57.9721 81.7843 57.376 81.3448 56.9365C80.9052 56.4969 80.3091 56.25 79.6875 56.25C79.0659 56.25 78.4698 56.4969 78.0302 56.9365C77.5907 57.376 77.3438 57.9721 77.3438 58.5938V83.2313C77.3457 88.8066 77.8319 94.3713 78.7969 99.8625L83.2125 125.006C83.3063 125.549 83.5886 126.041 84.0096 126.396C84.4306 126.751 84.9634 126.946 85.5141 126.947ZM133.594 126.562C134.215 126.562 134.811 126.316 135.251 125.876C135.691 125.436 135.938 124.84 135.938 124.219V115.5C135.938 114.632 136.1 113.772 136.416 112.964L147.638 83.8922C149.202 79.8528 150.003 75.5582 150 71.2266V46.875C150 44.3886 149.012 42.004 147.254 40.2459C145.496 38.4877 143.111 37.5 140.625 37.5C138.139 37.5 135.754 38.4877 133.996 40.2459C132.238 42.004 131.25 44.3886 131.25 46.875V66.5156L126.375 68.9531C122.195 71.0251 118.679 74.2271 116.227 78.1957C113.775 82.1644 112.483 86.741 112.5 91.4062C112.5 92.0279 112.747 92.624 113.186 93.0635C113.626 93.5031 114.222 93.75 114.844 93.75C115.465 93.75 116.061 93.5031 116.501 93.0635C116.941 92.624 117.188 92.0279 117.188 91.4062C117.175 87.6127 118.225 83.8915 120.219 80.6644C122.213 77.4374 125.072 74.8336 128.47 73.1484L134.644 70.0641C135.032 69.8688 135.359 69.5695 135.587 69.1996C135.816 68.8296 135.937 68.4035 135.938 67.9688V46.875C135.938 45.6318 136.431 44.4395 137.31 43.5604C138.19 42.6814 139.382 42.1875 140.625 42.1875C141.868 42.1875 143.06 42.6814 143.94 43.5604C144.819 44.4395 145.312 45.6318 145.312 46.875V71.2266C145.314 74.9811 144.62 78.7034 143.264 82.2047L132.037 111.272C131.517 112.619 131.25 114.051 131.25 115.495V124.219C131.25 124.84 131.497 125.436 131.936 125.876C132.376 126.316 132.972 126.562 133.594 126.562Z" fill="#00623B"/>
<path d="M84.375 147.656H131.25C133.839 147.656 135.938 145.558 135.938 142.969V128.906C135.938 126.317 133.839 124.219 131.25 124.219H84.375C81.7862 124.219 79.6875 126.317 79.6875 128.906V142.969C79.6875 145.558 81.7862 147.656 84.375 147.656Z" fill="#52BF96"/>
<path d="M84.375 150H131.25C133.114 149.998 134.901 149.256 136.219 147.938C137.537 146.62 138.279 144.833 138.281 142.969V128.906C138.279 127.042 137.537 125.255 136.219 123.937C134.901 122.619 133.114 121.877 131.25 121.875H84.375C82.511 121.877 80.724 122.619 79.4059 123.937C78.0878 125.255 77.3462 127.042 77.3438 128.906V142.969C77.3462 144.833 78.0878 146.62 79.4059 147.938C80.724 149.256 82.511 149.998 84.375 150ZM131.25 126.562C131.872 126.562 132.468 126.809 132.907 127.249C133.347 127.689 133.594 128.285 133.594 128.906V142.969C133.594 143.59 133.347 144.186 132.907 144.626C132.468 145.066 131.872 145.312 131.25 145.312H84.375C83.7534 145.312 83.1573 145.066 82.7177 144.626C82.2782 144.186 82.0312 143.59 82.0312 142.969V128.906C82.0312 128.285 82.2782 127.689 82.7177 127.249C83.1573 126.809 83.7534 126.562 84.375 126.562H131.25Z" fill="#00623B"/>
</g>
<defs>
<clipPath id="clip0_729_100">
<rect width="150" height="150" fill="white"/>
</clipPath>
</defs>
</svg>
