<svg width="150" height="150" viewBox="0 0 150 150" fill="none" xmlns="http://www.w3.org/2000/svg">
<g clip-path="url(#clip0_729_124)">
<path d="M33.2202 17.1704C37.1035 17.1704 40.2515 14.0224 40.2515 10.1392C40.2515 6.25591 37.1035 3.10791 33.2202 3.10791C29.337 3.10791 26.189 6.25591 26.189 10.1392C26.189 14.0224 29.337 17.1704 33.2202 17.1704Z" fill="#52BF96"/>
<path d="M33.2156 19.5188C31.3614 19.5188 29.5488 18.969 28.0071 17.9388C26.4654 16.9087 25.2638 15.4445 24.5542 13.7315C23.8446 12.0184 23.659 10.1334 24.0207 8.31483C24.3825 6.49626 25.2753 4.82579 26.5865 3.51468C27.8976 2.20356 29.568 1.31068 31.3866 0.948941C33.2052 0.587205 35.0902 0.772861 36.8032 1.48243C38.5163 2.192 39.9805 3.39362 41.0106 4.93533C42.0407 6.47704 42.5906 8.2896 42.5906 10.1438C42.5881 12.6294 41.5996 15.0126 39.842 16.7702C38.0844 18.5278 35.7012 19.5163 33.2156 19.5188ZM33.2156 5.4563C32.2885 5.4563 31.3822 5.73122 30.6113 6.24629C29.8405 6.76136 29.2397 7.49345 28.8849 8.34998C28.5301 9.2065 28.4373 10.149 28.6181 11.0583C28.799 11.9676 29.2455 12.8028 29.901 13.4584C30.5566 14.1139 31.3918 14.5604 32.3011 14.7412C33.2104 14.9221 34.1529 14.8293 35.0094 14.4745C35.8659 14.1197 36.598 13.5189 37.1131 12.748C37.6282 11.9772 37.9031 11.0709 37.9031 10.1438C37.9018 8.90098 37.4076 7.70942 36.5288 6.83061C35.65 5.9518 34.4584 5.45754 33.2156 5.4563Z" fill="#00623B"/>
<path d="M48.0234 18.5298C51.9067 18.5298 55.0547 15.3818 55.0547 11.4985C55.0547 7.61528 51.9067 4.46729 48.0234 4.46729C44.1402 4.46729 40.9922 7.61528 40.9922 11.4985C40.9922 15.3818 44.1402 18.5298 48.0234 18.5298Z" fill="#52BF96"/>
<path d="M48.0281 20.8735C46.1739 20.8735 44.3613 20.3237 42.8196 19.2936C41.2779 18.2634 40.0763 16.7993 39.3667 15.0862C38.6571 13.3731 38.4715 11.4881 38.8332 9.66957C39.195 7.851 40.0878 6.18053 41.399 4.86941C42.7101 3.5583 44.3805 2.66541 46.1991 2.30368C48.0177 1.94194 49.9027 2.1276 51.6157 2.83717C53.3288 3.54674 54.793 4.74836 55.8231 6.29007C56.8532 7.83178 57.4031 9.64434 57.4031 11.4985C57.4006 13.9842 56.4121 16.3673 54.6545 18.1249C52.8969 19.8825 50.5137 20.8711 48.0281 20.8735ZM48.0281 6.81104C47.101 6.81104 46.1947 7.08596 45.4238 7.60103C44.653 8.1161 44.0522 8.84818 43.6974 9.70471C43.3426 10.5612 43.2498 11.5037 43.4307 12.413C43.6115 13.3223 44.058 14.1575 44.7135 14.8131C45.3691 15.4687 46.2043 15.9151 47.1136 16.096C48.0229 16.2768 48.9654 16.184 49.8219 15.8292C50.6784 15.4744 51.4105 14.8736 51.9256 14.1028C52.4407 13.3319 52.7156 12.4256 52.7156 11.4985C52.7143 10.2557 52.2201 9.06416 51.3413 8.18535C50.4625 7.30654 49.2709 6.81228 48.0281 6.81104Z" fill="#00623B"/>
<path d="M58.8328 27.6094C62.716 27.6094 65.864 24.4614 65.864 20.5781C65.864 16.6949 62.716 13.5469 58.8328 13.5469C54.9495 13.5469 51.8015 16.6949 51.8015 20.5781C51.8015 24.4614 54.9495 27.6094 58.8328 27.6094Z" fill="#52BF96"/>
<path d="M58.8328 29.9531C56.9786 29.9531 55.166 29.4033 53.6243 28.3732C52.0826 27.343 50.881 25.8788 50.1714 24.1658C49.4618 22.4527 49.2762 20.5677 49.6379 18.7492C49.9996 16.9306 50.8925 15.2601 52.2036 13.949C53.5148 12.6379 55.1852 11.745 57.0038 11.3833C58.8224 11.0215 60.7074 11.2072 62.4204 11.9168C64.1335 12.6263 65.5977 13.8279 66.6278 15.3697C67.6579 16.9114 68.2078 18.7239 68.2078 20.5781C68.2053 23.0638 67.2168 25.4469 65.4592 27.2045C63.7015 28.9621 61.3184 29.9506 58.8328 29.9531ZM58.8328 15.8906C57.9057 15.8906 56.9994 16.1655 56.2285 16.6806C55.4577 17.1957 54.8569 17.9278 54.5021 18.7843C54.1473 19.6408 54.0545 20.5833 54.2353 21.4926C54.4162 22.4019 54.8626 23.2371 55.5182 23.8927C56.1738 24.5483 57.009 24.9947 57.9183 25.1756C58.8276 25.3564 59.7701 25.2636 60.6266 24.9088C61.4831 24.554 62.2152 23.9532 62.7303 23.1824C63.2453 22.4115 63.5203 21.5052 63.5203 20.5781C63.519 19.3353 63.0248 18.1437 62.146 17.2649C61.2672 16.3861 60.0756 15.8919 58.8328 15.8906Z" fill="#00623B"/>
<path d="M65.864 40.5234C69.7473 40.5234 72.8953 37.3754 72.8953 33.4922C72.8953 29.6089 69.7473 26.4609 65.864 26.4609C61.9808 26.4609 58.8328 29.6089 58.8328 33.4922C58.8328 37.3754 61.9808 40.5234 65.864 40.5234Z" fill="#52BF96"/>
<path d="M65.864 42.8672C64.0098 42.8672 62.1973 42.3174 60.6555 41.2872C59.1138 40.2571 57.9122 38.7929 57.2026 37.0798C56.4931 35.3668 56.3074 33.4818 56.6692 31.6632C57.0309 29.8446 57.9238 28.1742 59.2349 26.8631C60.546 25.5519 62.2165 24.6591 64.035 24.2973C65.8536 23.9356 67.7386 24.1212 69.4517 24.8308C71.1647 25.5404 72.6289 26.742 73.659 28.2837C74.6892 29.8254 75.239 31.638 75.239 33.4922C75.2365 35.9778 74.248 38.361 72.4904 40.1186C70.7328 41.8762 68.3497 42.8647 65.864 42.8672ZM65.864 28.8047C64.9369 28.8047 64.0306 29.0796 63.2598 29.5947C62.4889 30.1097 61.8881 30.8418 61.5333 31.6984C61.1785 32.5549 61.0857 33.4974 61.2666 34.4067C61.4475 35.316 61.8939 36.1512 62.5495 36.8068C63.205 37.4623 64.0402 37.9088 64.9495 38.0896C65.8588 38.2705 66.8013 38.1777 67.6578 37.8229C68.5144 37.4681 69.2465 36.8673 69.7615 36.0964C70.2766 35.3256 70.5515 34.4193 70.5515 33.4922C70.5503 32.2494 70.056 31.0578 69.1772 30.179C68.2984 29.3002 67.1068 28.8059 65.864 28.8047Z" fill="#00623B"/>
<path d="M74.4094 52.2422C78.2927 52.2422 81.4407 49.0942 81.4407 45.2109C81.4407 41.3277 78.2927 38.1797 74.4094 38.1797C70.5262 38.1797 67.3782 41.3277 67.3782 45.2109C67.3782 49.0942 70.5262 52.2422 74.4094 52.2422Z" fill="#52BF96"/>
<path d="M74.4094 54.5859C72.5552 54.5859 70.7427 54.0361 69.201 53.006C67.6592 51.9758 66.4576 50.5117 65.7481 48.7986C65.0385 47.0855 64.8528 45.2005 65.2146 43.382C65.5763 41.5634 66.4692 39.8929 67.7803 38.5818C69.0914 37.2707 70.7619 36.3778 72.5805 36.0161C74.399 35.6543 76.284 35.84 77.9971 36.5496C79.7101 37.2591 81.1743 38.4608 82.2045 40.0025C83.2346 41.5442 83.7844 43.3567 83.7844 45.2109C83.7819 47.6966 82.7934 50.0797 81.0358 51.8373C79.2782 53.5949 76.8951 54.5835 74.4094 54.5859ZM74.4094 40.5234C73.4823 40.5234 72.576 40.7984 71.8052 41.3134C71.0343 41.8285 70.4335 42.5606 70.0787 43.4171C69.724 44.2736 69.6311 45.2161 69.812 46.1254C69.9929 47.0347 70.4393 47.8699 71.0949 48.5255C71.7504 49.1811 72.5857 49.6275 73.4949 49.8084C74.4042 49.9892 75.3467 49.8964 76.2033 49.5416C77.0598 49.1868 77.7919 48.586 78.3069 47.8152C78.822 47.0443 79.0969 46.138 79.0969 45.2109C79.0957 43.9681 78.6014 42.7766 77.7226 41.8977C76.8438 41.0189 75.6522 40.5247 74.4094 40.5234Z" fill="#00623B"/>
<path d="M84.2954 62.8125C88.1787 62.8125 91.3267 59.6645 91.3267 55.7812C91.3267 51.898 88.1787 48.75 84.2954 48.75C80.4122 48.75 77.2642 51.898 77.2642 55.7812C77.2642 59.6645 80.4122 62.8125 84.2954 62.8125Z" fill="#52BF96"/>
<path d="M84.2905 65.1562C82.4363 65.1562 80.6238 64.6064 79.0821 63.5763C77.5403 62.5461 76.3387 61.082 75.6292 59.3689C74.9196 57.6559 74.7339 55.7709 75.0957 53.9523C75.4574 52.1337 76.3503 50.4632 77.6614 49.1521C78.9725 47.841 80.643 46.9481 82.4616 46.5864C84.2801 46.2247 86.1651 46.4103 87.8782 47.1199C89.5912 47.8295 91.0554 49.0311 92.0856 50.5728C93.1157 52.1145 93.6655 53.9271 93.6655 55.7813C93.6631 58.2669 92.6745 60.65 90.9169 62.4076C89.1593 64.1653 86.7762 65.1538 84.2905 65.1562ZM84.2905 51.0938C83.3634 51.0938 82.4572 51.3687 81.6863 51.8837C80.9154 52.3988 80.3146 53.1309 79.9598 53.9874C79.6051 54.844 79.5122 55.7865 79.6931 56.6957C79.874 57.605 80.3204 58.4403 80.976 59.0958C81.6315 59.7514 82.4668 60.1978 83.376 60.3787C84.2853 60.5596 85.2278 60.4667 86.0844 60.1119C86.9409 59.7572 87.673 59.1563 88.188 58.3855C88.7031 57.6146 88.978 56.7084 88.978 55.7813C88.9768 54.5384 88.4825 53.3469 87.6037 52.4681C86.7249 51.5893 85.5334 51.095 84.2905 51.0938Z" fill="#00623B"/>
<path d="M96.5813 69.8438C100.465 69.8438 103.613 66.6958 103.613 62.8125C103.613 58.9292 100.465 55.7812 96.5813 55.7812C92.698 55.7812 89.55 58.9292 89.55 62.8125C89.55 66.6958 92.698 69.8438 96.5813 69.8438Z" fill="#52BF96"/>
<path d="M96.5813 72.1875C94.7271 72.1875 92.9145 71.6377 91.3728 70.6075C89.8311 69.5774 88.6295 68.1132 87.9199 66.4002C87.2104 64.6871 87.0247 62.8021 87.3864 60.9835C87.7482 59.165 88.6411 57.4945 89.9522 56.1834C91.2633 54.8723 92.9338 53.9794 94.7523 53.6176C96.5709 53.2559 98.4559 53.4416 100.169 54.1511C101.882 54.8607 103.346 56.0623 104.376 57.604C105.406 59.1457 105.956 60.9583 105.956 62.8125C105.954 65.2981 104.965 67.6813 103.208 69.4389C101.45 71.1965 99.0669 72.185 96.5813 72.1875ZM96.5813 58.125C95.6542 58.125 94.7479 58.3999 93.9771 58.915C93.2062 59.4301 92.6054 60.1621 92.2506 61.0187C91.8958 61.8752 91.803 62.8177 91.9839 63.727C92.1647 64.6363 92.6112 65.4715 93.2667 66.1271C93.9223 66.7826 94.7575 67.2291 95.6668 67.4099C96.5761 67.5908 97.5186 67.498 98.3751 67.1432C99.2317 66.7884 99.9637 66.1876 100.479 65.4167C100.994 64.6459 101.269 63.7396 101.269 62.8125C101.268 61.5697 100.773 60.3781 99.8945 59.4993C99.0157 58.6205 97.8241 58.1262 96.5813 58.125Z" fill="#00623B"/>
<path d="M108.516 77.7983C112.399 77.7983 115.547 74.6503 115.547 70.7671C115.547 66.8838 112.399 63.7358 108.516 63.7358C104.632 63.7358 101.484 66.8838 101.484 70.7671C101.484 74.6503 104.632 77.7983 108.516 77.7983Z" fill="#52BF96"/>
<path d="M108.516 80.1421C106.661 80.1421 104.849 79.5923 103.307 78.5621C101.765 77.532 100.564 76.0678 99.8543 74.3548C99.1447 72.6417 98.959 70.7567 99.3208 68.9381C99.6825 67.1196 100.575 65.4491 101.887 64.138C103.198 62.8268 104.868 61.934 106.687 61.5722C108.505 61.2105 110.39 61.3962 112.103 62.1057C113.816 62.8153 115.281 64.0169 116.311 65.5586C117.341 67.1003 117.891 68.9129 117.891 70.7671C117.888 73.2527 116.9 75.6359 115.142 77.3935C113.384 79.1511 111.001 80.1396 108.516 80.1421ZM108.516 66.0796C107.589 66.0796 106.682 66.3545 105.911 66.8696C105.141 67.3847 104.54 68.1167 104.185 68.9733C103.83 69.8298 103.737 70.7723 103.918 71.6816C104.099 72.5909 104.546 73.4261 105.201 74.0817C105.857 74.7372 106.692 75.1837 107.601 75.3645C108.51 75.5454 109.453 75.4526 110.309 75.0978C111.166 74.743 111.898 74.1422 112.413 73.3713C112.928 72.6005 113.203 71.6942 113.203 70.7671C113.202 69.5243 112.708 68.3327 111.829 67.4539C110.95 66.5751 109.758 66.0808 108.516 66.0796Z" fill="#00623B"/>
<path d="M118.387 87.811C122.271 87.811 125.419 84.663 125.419 80.7798C125.419 76.8965 122.271 73.7485 118.387 73.7485C114.504 73.7485 111.356 76.8965 111.356 80.7798C111.356 84.663 114.504 87.811 118.387 87.811Z" fill="#52BF96"/>
<path d="M118.387 90.1548C116.533 90.1548 114.721 89.605 113.179 88.5748C111.637 87.5447 110.436 86.0805 109.726 84.3675C109.017 82.6544 108.831 80.7694 109.193 78.9508C109.554 77.1322 110.447 75.4618 111.758 74.1507C113.069 72.8395 114.74 71.9467 116.558 71.5849C118.377 71.2232 120.262 71.4088 121.975 72.1184C123.688 72.828 125.152 74.0296 126.182 75.5713C127.213 77.113 127.762 78.9256 127.762 80.7798C127.76 83.2654 126.771 85.6486 125.014 87.4062C123.256 89.1638 120.873 90.1523 118.387 90.1548ZM118.387 76.0923C117.46 76.0923 116.554 76.3672 115.783 76.8823C115.012 77.3974 114.412 78.1294 114.057 78.986C113.702 79.8425 113.609 80.785 113.79 81.6943C113.971 82.6036 114.417 83.4388 115.073 84.0944C115.728 84.7499 116.564 85.1964 117.473 85.3772C118.382 85.5581 119.325 85.4653 120.181 85.1105C121.038 84.7557 121.77 84.1549 122.285 83.384C122.8 82.6132 123.075 81.7069 123.075 80.7798C123.074 79.537 122.579 78.3454 121.701 77.4666C120.822 76.5878 119.63 76.0935 118.387 76.0923Z" fill="#00623B"/>
<path d="M125.091 100.997C128.974 100.997 132.122 97.8488 132.122 93.9656C132.122 90.0823 128.974 86.9343 125.091 86.9343C121.207 86.9343 118.059 90.0823 118.059 93.9656C118.059 97.8488 121.207 100.997 125.091 100.997Z" fill="#52BF96"/>
<path d="M125.091 103.341C123.236 103.341 121.424 102.791 119.882 101.761C118.34 100.73 117.139 99.2663 116.429 97.5532C115.72 95.8402 115.534 93.9552 115.896 92.1366C116.257 90.318 117.15 88.6476 118.461 87.3365C119.773 86.0253 121.443 85.1325 123.262 84.7707C125.08 84.409 126.965 84.5946 128.678 85.3042C130.391 86.0138 131.855 87.2154 132.886 88.7571C133.916 90.2988 134.466 92.1114 134.466 93.9656C134.463 96.4512 133.475 98.8344 131.717 100.592C129.959 102.35 127.576 103.338 125.091 103.341ZM125.091 89.2781C124.163 89.2781 123.257 89.553 122.486 90.0681C121.715 90.5831 121.115 91.3152 120.76 92.1718C120.405 93.0283 120.312 93.9708 120.493 94.8801C120.674 95.7894 121.12 96.6246 121.776 97.2801C122.432 97.9357 123.267 98.3821 124.176 98.563C125.085 98.7439 126.028 98.6511 126.884 98.2963C127.741 97.9415 128.473 97.3407 128.988 96.5698C129.503 95.799 129.778 94.8927 129.778 93.9656C129.777 92.7228 129.283 91.5312 128.404 90.6524C127.525 89.7736 126.333 89.2793 125.091 89.2781Z" fill="#00623B"/>
<path d="M118.341 113.691C122.224 113.691 125.372 110.543 125.372 106.659C125.372 102.776 122.224 99.6282 118.341 99.6282C114.457 99.6282 111.309 102.776 111.309 106.659C111.309 110.543 114.457 113.691 118.341 113.691Z" fill="#52BF96"/>
<path d="M118.341 116.034C116.486 116.034 114.674 115.485 113.132 114.454C111.59 113.424 110.389 111.96 109.679 110.247C108.97 108.534 108.784 106.649 109.146 104.83C109.507 103.012 110.4 101.341 111.711 100.03C113.023 98.7192 114.693 97.8263 116.512 97.4646C118.33 97.1028 120.215 97.2885 121.928 97.9981C123.641 98.7076 125.105 99.9093 126.136 101.451C127.166 102.993 127.716 104.805 127.716 106.659C127.713 109.145 126.725 111.528 124.967 113.286C123.209 115.043 120.826 116.032 118.341 116.034ZM118.341 101.972C117.413 101.972 116.507 102.247 115.736 102.762C114.965 103.277 114.365 104.009 114.01 104.866C113.655 105.722 113.562 106.665 113.743 107.574C113.924 108.483 114.37 109.318 115.026 109.974C115.682 110.63 116.517 111.076 117.426 111.257C118.335 111.438 119.278 111.345 120.134 110.99C120.991 110.635 121.723 110.035 122.238 109.264C122.753 108.493 123.028 107.587 123.028 106.659C123.027 105.417 122.533 104.225 121.654 103.346C120.775 102.467 119.583 101.973 118.341 101.972Z" fill="#00623B"/>
<path d="M107.531 122.77C111.415 122.77 114.562 119.622 114.562 115.739C114.562 111.856 111.415 108.708 107.531 108.708C103.648 108.708 100.5 111.856 100.5 115.739C100.5 119.622 103.648 122.77 107.531 122.77Z" fill="#52BF96"/>
<path d="M107.531 125.109C105.677 125.109 103.864 124.56 102.323 123.529C100.781 122.499 99.5795 121.035 98.8699 119.322C98.1603 117.609 97.9747 115.724 98.3364 113.905C98.6981 112.087 99.591 110.416 100.902 109.105C102.213 107.794 103.884 106.901 105.702 106.54C107.521 106.178 109.406 106.363 111.119 107.073C112.832 107.783 114.296 108.984 115.326 110.526C116.356 112.068 116.906 113.88 116.906 115.734C116.904 118.22 115.915 120.603 114.158 122.361C112.4 124.118 110.017 125.107 107.531 125.109ZM107.531 111.047C106.604 111.047 105.698 111.322 104.927 111.837C104.156 112.352 103.555 113.084 103.201 113.941C102.846 114.797 102.753 115.74 102.934 116.649C103.115 117.558 103.561 118.393 104.217 119.049C104.872 119.704 105.707 120.151 106.617 120.332C107.526 120.513 108.469 120.42 109.325 120.065C110.182 119.71 110.914 119.109 111.429 118.339C111.944 117.568 112.219 116.661 112.219 115.734C112.218 114.492 111.723 113.3 110.844 112.421C109.966 111.542 108.774 111.048 107.531 111.047Z" fill="#00623B"/>
<path d="M93.9844 126.375C97.8676 126.375 101.016 123.227 101.016 119.344C101.016 115.46 97.8676 112.312 93.9844 112.312C90.1011 112.312 86.9531 115.46 86.9531 119.344C86.9531 123.227 90.1011 126.375 93.9844 126.375Z" fill="#52BF96"/>
<path d="M93.9844 128.719C92.1302 128.719 90.3176 128.169 88.7759 127.139C87.2342 126.109 86.0326 124.644 85.323 122.931C84.6134 121.218 84.4278 119.333 84.7895 117.515C85.1513 115.696 86.0441 114.026 87.3553 112.715C88.6664 111.404 90.3368 110.511 92.1554 110.149C93.974 109.787 95.859 109.973 97.572 110.682C99.2851 111.392 100.749 112.594 101.779 114.135C102.81 115.677 103.359 117.49 103.359 119.344C103.357 121.829 102.368 124.213 100.611 125.97C98.8532 127.728 96.47 128.716 93.9844 128.719ZM93.9844 114.656C93.0573 114.656 92.151 114.931 91.3802 115.446C90.6093 115.961 90.0085 116.693 89.6537 117.55C89.2989 118.406 89.2061 119.349 89.3869 120.258C89.5678 121.168 90.0143 122.003 90.6698 122.658C91.3254 123.314 92.1606 123.76 93.0699 123.941C93.9792 124.122 94.9217 124.029 95.7782 123.674C96.6347 123.32 97.3668 122.719 97.8819 121.948C98.397 121.177 98.6719 120.271 98.6719 119.344C98.6706 118.101 98.1764 116.909 97.2976 116.031C96.4188 115.152 95.2272 114.657 93.9844 114.656Z" fill="#00623B"/>
<path d="M80.175 122.512C84.0583 122.512 87.2063 119.364 87.2063 115.481C87.2063 111.598 84.0583 108.45 80.175 108.45C76.2918 108.45 73.1438 111.598 73.1438 115.481C73.1438 119.364 76.2918 122.512 80.175 122.512Z" fill="#52BF96"/>
<path d="M80.1751 124.856C78.3209 124.856 76.5083 124.306 74.9666 123.276C73.4249 122.246 72.2233 120.782 71.5137 119.069C70.8041 117.356 70.6185 115.471 70.9802 113.652C71.3419 111.834 72.2348 110.163 73.5459 108.852C74.857 107.541 76.5275 106.648 78.3461 106.286C80.1647 105.925 82.0497 106.11 83.7627 106.82C85.4758 107.529 86.9399 108.731 87.9701 110.273C89.0002 111.814 89.5501 113.627 89.5501 115.481C89.5476 117.967 88.5591 120.35 86.8014 122.108C85.0438 123.865 82.6607 124.854 80.1751 124.856ZM80.1751 110.794C79.248 110.794 78.3417 111.069 77.5708 111.584C76.8 112.099 76.1992 112.831 75.8444 113.687C75.4896 114.544 75.3968 115.486 75.5776 116.396C75.7585 117.305 76.2049 118.14 76.8605 118.796C77.516 119.451 78.3513 119.898 79.2606 120.079C80.1699 120.26 81.1124 120.167 81.9689 119.812C82.8254 119.457 83.5575 118.856 84.0726 118.085C84.5876 117.315 84.8626 116.408 84.8626 115.481C84.8626 114.238 84.3687 113.046 83.4896 112.167C82.6105 111.288 81.4183 110.794 80.1751 110.794Z" fill="#00623B"/>
<path d="M70.2329 112.57C74.1162 112.57 77.2642 109.422 77.2642 105.539C77.2642 101.656 74.1162 98.5078 70.2329 98.5078C66.3497 98.5078 63.2017 101.656 63.2017 105.539C63.2017 109.422 66.3497 112.57 70.2329 112.57Z" fill="#52BF96"/>
<path d="M70.2329 114.914C68.3787 114.914 66.5662 114.364 65.0244 113.334C63.4827 112.304 62.2811 110.84 61.5715 109.127C60.862 107.414 60.6763 105.529 61.0381 103.71C61.3998 101.892 62.2927 100.221 63.6038 98.9099C64.9149 97.5988 66.5854 96.7059 68.4039 96.3442C70.2225 95.9825 72.1075 96.1681 73.8206 96.8777C75.5336 97.5873 76.9978 98.7889 78.0279 100.331C79.0581 101.872 79.6079 103.685 79.6079 105.539C79.6054 108.025 78.6169 110.408 76.8593 112.165C75.1017 113.923 72.7186 114.912 70.2329 114.914ZM70.2329 100.852C69.3058 100.852 68.3995 101.126 67.6287 101.642C66.8578 102.157 66.257 102.889 65.9022 103.745C65.5474 104.602 65.4546 105.544 65.6355 106.454C65.8164 107.363 66.2628 108.198 66.9184 108.854C67.5739 109.509 68.4091 109.956 69.3184 110.137C70.2277 110.317 71.1702 110.225 72.0267 109.87C72.8833 109.515 73.6154 108.914 74.1304 108.143C74.6455 107.372 74.9204 106.466 74.9204 105.539C74.9192 104.296 74.4249 103.105 73.5461 102.226C72.6673 101.347 71.4757 100.853 70.2329 100.852Z" fill="#00623B"/>
<path d="M60.6282 100.997C64.5114 100.997 67.6594 97.8488 67.6594 93.9656C67.6594 90.0823 64.5114 86.9343 60.6282 86.9343C56.7449 86.9343 53.5969 90.0823 53.5969 93.9656C53.5969 97.8488 56.7449 100.997 60.6282 100.997Z" fill="#52BF96"/>
<path d="M60.6282 103.341C58.774 103.341 56.9614 102.791 55.4197 101.761C53.878 100.73 52.6764 99.2663 51.9668 97.5532C51.2572 95.8402 51.0716 93.9552 51.4333 92.1366C51.7951 90.318 52.6879 88.6476 53.9991 87.3365C55.3102 86.0253 56.9806 85.1325 58.7992 84.7707C60.6178 84.409 62.5028 84.5946 64.2158 85.3042C65.9289 86.0138 67.3931 87.2154 68.4232 88.7571C69.4533 90.2988 70.0032 92.1114 70.0032 93.9656C70.0007 96.4512 69.0122 98.8344 67.2546 100.592C65.4969 102.35 63.1138 103.338 60.6282 103.341ZM60.6282 89.2781C59.7011 89.2781 58.7948 89.553 58.0239 90.0681C57.2531 90.5831 56.6523 91.3152 56.2975 92.1718C55.9427 93.0283 55.8499 93.9708 56.0307 94.8801C56.2116 95.7894 56.6581 96.6246 57.3136 97.2801C57.9692 97.9357 58.8044 98.3821 59.7137 98.563C60.623 98.7439 61.5655 98.6511 62.422 98.2963C63.2785 97.9415 64.0106 97.3407 64.5257 96.5698C65.0408 95.799 65.3157 94.8927 65.3157 93.9656C65.3144 92.7228 64.8202 91.5312 63.9414 90.6524C63.0626 89.7736 61.871 89.2793 60.6282 89.2781Z" fill="#00623B"/>
<path d="M53.5969 87.811C57.4802 87.811 60.6282 84.663 60.6282 80.7798C60.6282 76.8965 57.4802 73.7485 53.5969 73.7485C49.7137 73.7485 46.5657 76.8965 46.5657 80.7798C46.5657 84.663 49.7137 87.811 53.5969 87.811Z" fill="#52BF96"/>
<path d="M53.5969 90.1548C51.7427 90.1548 49.9302 89.605 48.3885 88.5748C46.8467 87.5447 45.6451 86.0805 44.9356 84.3675C44.226 82.6544 44.0403 80.7694 44.4021 78.9508C44.7638 77.1322 45.6567 75.4618 46.9678 74.1507C48.2789 72.8395 49.9494 71.9467 51.768 71.5849C53.5865 71.2232 55.4715 71.4088 57.1846 72.1184C58.8976 72.828 60.3618 74.0296 61.392 75.5713C62.4221 77.113 62.9719 78.9256 62.9719 80.7798C62.9694 83.2654 61.9809 85.6486 60.2233 87.4062C58.4657 89.1638 56.0826 90.1523 53.5969 90.1548ZM53.5969 76.0923C52.6698 76.0923 51.7635 76.3672 50.9927 76.8823C50.2218 77.3974 49.621 78.1294 49.2662 78.986C48.9115 79.8425 48.8186 80.785 48.9995 81.6943C49.1804 82.6036 49.6268 83.4388 50.2824 84.0944C50.9379 84.7499 51.7732 85.1964 52.6824 85.3772C53.5917 85.5581 54.5342 85.4653 55.3908 85.1105C56.2473 84.7557 56.9794 84.1549 57.4944 83.384C58.0095 82.6132 58.2844 81.7069 58.2844 80.7798C58.2832 79.537 57.7889 78.3454 56.9101 77.4666C56.0313 76.5878 54.8398 76.0935 53.5969 76.0923Z" fill="#00623B"/>
<path d="M43.7532 75.6797C47.6364 75.6797 50.7844 72.5317 50.7844 68.6484C50.7844 64.7652 47.6364 61.6172 43.7532 61.6172C39.8699 61.6172 36.7219 64.7652 36.7219 68.6484C36.7219 72.5317 39.8699 75.6797 43.7532 75.6797Z" fill="#52BF96"/>
<path d="M43.7532 78.0234C41.899 78.0234 40.0864 77.4736 38.5447 76.4435C37.003 75.4133 35.8014 73.9492 35.0918 72.2361C34.3822 70.523 34.1966 68.638 34.5583 66.8195C34.9201 65.0009 35.8129 63.3304 37.1241 62.0193C38.4352 60.7082 40.1056 59.8153 41.9242 59.4536C43.7428 59.0918 45.6278 59.2775 47.3408 59.9871C49.0539 60.6966 50.5181 61.8983 51.5482 63.44C52.5783 64.9817 53.1282 66.7942 53.1282 68.6484C53.1257 71.1341 52.1372 73.5172 50.3796 75.2748C48.6219 77.0324 46.2388 78.021 43.7532 78.0234ZM43.7532 63.9609C42.8261 63.9609 41.9198 64.2359 41.1489 64.7509C40.3781 65.266 39.7773 65.9981 39.4225 66.8546C39.0677 67.7111 38.9749 68.6536 39.1557 69.5629C39.3366 70.4722 39.7831 71.3074 40.4386 71.963C41.0942 72.6186 41.9294 73.065 42.8387 73.2459C43.748 73.4267 44.6905 73.3339 45.547 72.9791C46.4035 72.6243 47.1356 72.0235 47.6507 71.2527C48.1658 70.4818 48.4407 69.5755 48.4407 68.6484C48.4394 67.4056 47.9452 66.2141 47.0664 65.3352C46.1876 64.4564 44.996 63.9622 43.7532 63.9609Z" fill="#00623B"/>
<path d="M33.2202 65.7891C37.1035 65.7891 40.2515 62.6411 40.2515 58.7578C40.2515 54.8746 37.1035 51.7266 33.2202 51.7266C29.337 51.7266 26.189 54.8746 26.189 58.7578C26.189 62.6411 29.337 65.7891 33.2202 65.7891Z" fill="#52BF96"/>
<path d="M33.2156 68.1328C31.3614 68.1328 29.5488 67.583 28.0071 66.5528C26.4654 65.5227 25.2638 64.0585 24.5542 62.3455C23.8446 60.6324 23.659 58.7474 24.0207 56.9288C24.3825 55.1103 25.2753 53.4398 26.5865 52.1287C27.8976 50.8176 29.568 49.9247 31.3866 49.563C33.2052 49.2012 35.0902 49.3869 36.8032 50.0964C38.5163 50.806 39.9805 52.0076 41.0106 53.5493C42.0407 55.0911 42.5906 56.9036 42.5906 58.7578C42.5881 61.2435 41.5996 63.6266 39.842 65.3842C38.0844 67.1418 35.7012 68.1303 33.2156 68.1328ZM33.2156 54.0703C32.2885 54.0703 31.3822 54.3452 30.6113 54.8603C29.8405 55.3754 29.2397 56.1075 28.8849 56.964C28.5301 57.8205 28.4373 58.763 28.6181 59.6723C28.799 60.5816 29.2455 61.4168 29.901 62.0724C30.5566 62.7279 31.3918 63.1744 32.3011 63.3553C33.2104 63.5361 34.1529 63.4433 35.0094 63.0885C35.8659 62.7337 36.598 62.1329 37.1131 61.3621C37.6282 60.5912 37.9031 59.6849 37.9031 58.7578C37.9018 57.515 37.4076 56.3234 36.5288 55.4446C35.65 54.5658 34.4584 54.0716 33.2156 54.0703Z" fill="#00623B"/>
<path d="M20.8218 58.7578C24.705 58.7578 27.853 55.6098 27.853 51.7266C27.853 47.8433 24.705 44.6953 20.8218 44.6953C16.9385 44.6953 13.7905 47.8433 13.7905 51.7266C13.7905 55.6098 16.9385 58.7578 20.8218 58.7578Z" fill="#52BF96"/>
<path d="M20.8218 61.1016C18.9676 61.1016 17.155 60.5517 15.6133 59.5216C14.0716 58.4915 12.87 57.0273 12.1604 55.3142C11.4508 53.6012 11.2652 51.7162 11.6269 49.8976C11.9887 48.079 12.8815 46.4086 14.1927 45.0974C15.5038 43.7863 17.1742 42.8934 18.9928 42.5317C20.8114 42.17 22.6964 42.3556 24.4094 43.0652C26.1225 43.7748 27.5867 44.9764 28.6168 46.5181C29.647 48.0598 30.1968 49.8724 30.1968 51.7266C30.1943 54.2122 29.2058 56.5953 27.4482 58.353C25.6906 60.1106 23.3074 61.0991 20.8218 61.1016ZM20.8218 47.0391C19.8947 47.0391 18.9884 47.314 18.2175 47.8291C17.4467 48.3441 16.8459 49.0762 16.4911 49.9327C16.1363 50.7893 16.0435 51.7318 16.2244 52.6411C16.4052 53.5503 16.8517 54.3856 17.5072 55.0411C18.1628 55.6967 18.998 56.1431 19.9073 56.324C20.8166 56.5049 21.7591 56.412 22.6156 56.0573C23.4721 55.7025 24.2042 55.1017 24.7193 54.3308C25.2344 53.56 25.5093 52.6537 25.5093 51.7266C25.508 50.4837 25.0138 49.2922 24.135 48.4134C23.2562 47.5346 22.0646 47.0403 20.8218 47.0391Z" fill="#00623B"/>
<path d="M9.47339 32.5923C13.3566 32.5923 16.5046 29.4443 16.5046 25.561C16.5046 21.6778 13.3566 18.5298 9.47339 18.5298C5.59014 18.5298 2.44214 21.6778 2.44214 25.561C2.44214 29.4443 5.59014 32.5923 9.47339 32.5923Z" fill="#52BF96"/>
<path d="M11.4734 46.5923C15.3566 46.5923 18.5046 43.4443 18.5046 39.561C18.5046 35.6778 15.3566 32.5298 11.4734 32.5298C7.59014 32.5298 4.44214 35.6778 4.44214 39.561C4.44214 43.4443 7.59014 46.5923 11.4734 46.5923Z" fill="#52BF96"/>
<path d="M11.6626 49.5796C9.8084 49.5796 7.99584 49.0298 6.45413 47.9996C4.91242 46.9695 3.7108 45.5053 3.00123 43.7923C2.29166 42.0792 2.106 40.1942 2.46774 38.3756C2.82948 36.557 3.72236 34.8866 5.03348 33.5755C6.34459 32.2644 8.01506 31.3715 9.83363 31.0097C11.6522 30.648 13.5372 30.8337 15.2503 31.5432C16.9633 32.2528 18.4275 33.4544 19.4576 34.9961C20.4878 36.5378 21.0376 38.3504 21.0376 40.2046C21.0351 42.6902 20.0466 45.0734 18.289 46.831C16.5314 48.5886 14.1482 49.5771 11.6626 49.5796ZM11.6626 35.5171C10.7355 35.5171 9.82922 35.792 9.05837 36.3071C8.28751 36.8222 7.6867 37.5542 7.33192 38.4108C6.97713 39.2673 6.8843 40.2098 7.06517 41.1191C7.24604 42.0284 7.69248 42.8636 8.34804 43.5192C9.0036 44.1747 9.83883 44.6212 10.7481 44.802C11.6574 44.9829 12.5999 44.8901 13.4564 44.5353C14.313 44.1805 15.045 43.5797 15.5601 42.8088C16.0752 42.038 16.3501 41.1317 16.3501 40.2046C16.3489 38.9618 15.8546 37.7702 14.9758 36.8914C14.097 36.0126 12.9054 35.5183 11.6626 35.5171Z" fill="#00623B"/>
<path d="M9.46876 34.936C7.61456 34.936 5.80199 34.3862 4.26028 33.3561C2.71857 32.3259 1.51696 30.8618 0.807384 29.1487C0.097812 27.4356 -0.0878442 25.5506 0.273892 23.7321C0.635629 21.9135 1.52851 20.243 2.83963 18.9319C4.15075 17.6208 5.82121 16.7279 7.63978 16.3662C9.45836 16.0044 11.3434 16.1901 13.0564 16.8997C14.7695 17.6092 16.2336 18.8109 17.2638 20.3526C18.2939 21.8943 18.8438 23.7068 18.8438 25.561C18.8413 28.0467 17.8528 30.4298 16.0951 32.1874C14.3375 33.945 11.9544 34.9336 9.46876 34.936ZM9.46876 20.8735C8.54166 20.8735 7.63537 21.1485 6.86452 21.6635C6.09366 22.1786 5.49286 22.9107 5.13807 23.7672C4.78328 24.6237 4.69046 25.5662 4.87132 26.4755C5.05219 27.3848 5.49863 28.22 6.15419 28.8756C6.80975 29.5312 7.64498 29.9776 8.55427 30.1585C9.46356 30.3393 10.4061 30.2465 11.2626 29.8917C12.1191 29.5369 12.8512 28.9361 13.3663 28.1653C13.8813 27.3944 14.1563 26.4881 14.1563 25.561C14.155 24.3182 13.6608 23.1267 12.7819 22.2478C11.9031 21.369 10.7116 20.8748 9.46876 20.8735Z" fill="#00623B"/>
<path d="M19.1016 20.5781C22.9848 20.5781 26.1328 17.4301 26.1328 13.5469C26.1328 9.66362 22.9848 6.51562 19.1016 6.51562C15.2183 6.51562 12.0703 9.66362 12.0703 13.5469C12.0703 17.4301 15.2183 20.5781 19.1016 20.5781Z" fill="#52BF96"/>
<path d="M19.1016 22.9219C17.2474 22.9219 15.4348 22.372 13.8931 21.3419C12.3514 20.3118 11.1498 18.8476 10.4402 17.1345C9.73062 15.4215 9.54497 13.5365 9.9067 11.7179C10.2684 9.89933 11.1613 8.22887 12.4724 6.91775C13.7836 5.60664 15.454 4.71375 17.2726 4.35202C19.0912 3.99028 20.9762 4.17594 22.6892 4.88551C24.4023 5.59508 25.8665 6.7967 26.8966 8.33841C27.9267 9.88012 28.4766 11.6927 28.4766 13.5469C28.4741 16.0325 27.4856 18.4156 25.728 20.1733C23.9703 21.9309 21.5872 22.9194 19.1016 22.9219ZM19.1016 8.85938C18.1745 8.85938 17.2682 9.1343 16.4973 9.64936C15.7265 10.1644 15.1257 10.8965 14.7709 11.7531C14.4161 12.6096 14.3233 13.5521 14.5041 14.4614C14.685 15.3707 15.1314 16.2059 15.787 16.8614C16.4426 17.517 17.2778 17.9634 18.1871 18.1443C19.0964 18.3252 20.0389 18.2323 20.8954 17.8776C21.7519 17.5228 22.484 16.922 22.9991 16.1511C23.5141 15.3803 23.7891 14.474 23.7891 13.5469C23.7878 12.3041 23.2936 11.1125 22.4148 10.2337C21.536 9.35488 20.3444 8.86062 19.1016 8.85938ZM123.08 124.753C122.772 124.754 122.466 124.694 122.182 124.577C121.897 124.459 121.638 124.287 121.42 124.069L113.592 116.241C113.152 115.801 112.905 115.205 112.904 114.583C112.904 113.961 113.15 113.364 113.59 112.924C114.029 112.484 114.626 112.237 115.248 112.236C115.87 112.236 116.466 112.482 116.906 112.922L124.734 120.75C125.063 121.078 125.287 121.495 125.377 121.95C125.468 122.405 125.422 122.876 125.245 123.305C125.068 123.733 124.768 124.1 124.382 124.358C123.997 124.615 123.543 124.753 123.08 124.753Z" fill="#00623B"/>
<path d="M123.08 122.409C127.661 122.397 132.205 123.219 136.491 124.837C139.803 126.361 142.909 128.299 145.734 130.603C146.263 131.009 146.698 131.523 147.011 132.112C147.325 132.7 147.509 133.348 147.551 134.013C147.593 134.678 147.492 135.344 147.256 135.967C147.02 136.59 146.653 137.155 146.18 137.625L138.295 145.509C137.826 145.982 137.261 146.35 136.638 146.587C136.016 146.823 135.349 146.924 134.684 146.883C134.019 146.841 133.371 146.657 132.783 146.345C132.194 146.032 131.68 145.597 131.273 145.069C128.969 142.242 127.031 139.134 125.508 135.82C123.89 131.535 123.067 126.99 123.08 122.409Z" fill="#E0E0E2"/>
<path d="M134.967 149.236C134.808 149.236 134.653 149.227 134.489 149.217C133.496 149.151 132.53 148.873 131.653 148.403C130.777 147.932 130.011 147.28 129.408 146.489C126.941 143.5 124.891 140.19 123.314 136.65C121.592 132.097 120.718 127.268 120.736 122.4C120.76 121.767 121.031 121.17 121.489 120.734C121.948 120.297 122.559 120.058 123.192 120.066C128.019 120.061 132.806 120.935 137.32 122.644C140.862 124.221 144.173 126.271 147.164 128.737C147.958 129.347 148.612 130.118 149.083 131.001C149.553 131.884 149.83 132.857 149.894 133.855C149.958 134.854 149.808 135.854 149.453 136.79C149.099 137.725 148.548 138.574 147.839 139.28L139.95 147.169C138.628 148.489 136.836 149.236 134.967 149.236ZM125.498 124.828C125.725 128.308 126.468 131.734 127.701 134.995C129.13 138.102 130.958 141.01 133.139 143.644C133.336 143.905 133.587 144.12 133.875 144.275C134.163 144.43 134.481 144.52 134.808 144.539C135.144 144.565 135.482 144.517 135.797 144.399C136.113 144.281 136.399 144.095 136.636 143.855L144.525 135.966C144.762 135.727 144.946 135.44 145.064 135.125C145.182 134.81 145.231 134.473 145.209 134.137C145.192 133.811 145.103 133.491 144.949 133.202C144.795 132.913 144.58 132.661 144.319 132.464C141.679 130.285 138.767 128.459 135.656 127.031C132.395 125.796 128.969 125.053 125.489 124.828H125.498Z" fill="#00623B"/>
</g>
<defs>
<clipPath id="clip0_729_124">
<rect width="150" height="150" fill="white"/>
</clipPath>
</defs>
</svg>
