<svg width="150" height="150" viewBox="0 0 150 150" fill="none" xmlns="http://www.w3.org/2000/svg">
<g clip-path="url(#clip0_729_173)">
<path d="M64.0594 31.9595L56.9485 45.586L72.1172 51.1689L76.711 41.8829" fill="#E0E0E2"/>
<path d="M72.1172 53.5126C71.8403 53.5137 71.5655 53.4645 71.3063 53.3673L56.1375 47.7798C55.8255 47.6644 55.5416 47.4839 55.3047 47.2503C55.0679 47.0167 54.8834 46.7354 54.7637 46.425C54.644 46.1146 54.5917 45.7823 54.6104 45.4501C54.629 45.118 54.7182 44.7936 54.8719 44.4985L61.9828 30.8767C62.2796 30.3421 62.7734 29.9447 63.359 29.7691C63.9447 29.5936 64.5757 29.6538 65.1176 29.9369C65.6594 30.2201 66.0692 30.7038 66.2594 31.2848C66.4497 31.8658 66.4054 32.4982 66.136 33.047L60.2532 44.3063L70.95 48.2438L74.611 40.847C74.7414 40.5615 74.9278 40.3052 75.1592 40.0932C75.3905 39.8811 75.6621 39.7177 75.9578 39.6126C76.2535 39.5075 76.5673 39.4629 76.8805 39.4813C77.1938 39.4998 77.5002 39.5809 77.7815 39.72C78.0628 39.8591 78.3133 40.0533 78.5182 40.291C78.7231 40.5287 78.8781 40.8052 78.9741 41.1039C79.0701 41.4027 79.1051 41.7177 79.0771 42.0303C79.0491 42.3429 78.9586 42.6466 78.811 42.9235L74.2172 52.2048C74.024 52.5969 73.7249 52.9272 73.3538 53.1583C72.9827 53.3894 72.5544 53.5122 72.1172 53.5126Z" fill="#00623B"/>
<path d="M71.0953 41.9062L68.8641 40.7203C67.0979 39.7863 65.5344 38.5114 64.264 36.9693C62.9937 35.4272 62.0418 33.6485 61.4633 31.7361C60.8849 29.8237 60.6913 27.8156 60.894 25.8279C61.0966 23.8403 61.6913 21.9125 62.6438 20.1562L67.1625 11.8453C69.1119 8.29129 72.3847 5.64994 76.2702 4.49492C80.1556 3.33991 84.3399 3.76451 87.9141 5.67651L90.1454 6.86714C91.9116 7.80109 93.4751 9.07601 94.7454 10.6181C96.0157 12.1602 96.9677 13.9389 97.5461 15.8513C98.1246 17.7637 98.3181 19.7718 98.1155 21.7595C97.9129 23.7471 97.3181 25.6749 96.3657 27.4312L91.8469 35.7468C89.8967 39.3 86.6236 41.9403 82.7382 43.0944C78.8528 44.2486 74.669 43.8233 71.0953 41.9109V41.9062Z" fill="#E0E0E2"/>
<path d="M78.3281 46.0641C75.4208 46.064 72.5584 45.3476 69.9938 43.9782L67.7625 42.7876C65.7224 41.709 63.9166 40.2364 62.4495 38.455C60.9825 36.6737 59.8834 34.619 59.2159 32.4099C58.5485 30.2009 58.3259 27.8814 58.561 25.5857C58.7962 23.29 59.4845 21.0638 60.586 19.036L65.1047 10.7251C67.3576 6.63692 71.1286 3.59937 75.6027 2.26879C80.0769 0.93821 84.8949 1.42146 89.0157 3.61412L91.2516 4.80006C93.2912 5.87912 95.0967 7.35197 96.5633 9.13338C98.03 10.9148 99.1289 12.9694 99.7963 15.1782C100.464 17.3871 100.686 19.7064 100.452 22.002C100.217 24.2975 99.529 26.5236 98.4282 28.5516L93.9047 36.8672C92.3765 39.6593 90.1234 41.9873 87.3828 43.6059C84.6422 45.2245 81.5157 46.0738 78.3328 46.0641H78.3281ZM80.6625 6.20631C78.3253 6.19922 76.0295 6.82244 74.0166 8.01033C72.0038 9.19822 70.3485 10.9068 69.225 12.9563L64.7063 21.2719C63.899 22.7559 63.3947 24.3855 63.2227 26.066C63.0506 27.7465 63.2142 29.4444 63.704 31.0612C64.1938 32.6779 65 34.1812 66.0757 35.4837C67.1514 36.7863 68.4753 37.862 69.9703 38.6485L72.1969 39.8391C75.2241 41.4592 78.7678 41.8211 82.0599 40.8463C85.3521 39.8714 88.1274 37.6384 89.7844 34.6313L94.3078 26.311C95.1149 24.8377 95.6202 23.2182 95.794 21.5473C95.9679 19.8764 95.8068 18.1877 95.3203 16.5797C94.8349 14.9527 94.0297 13.4389 92.952 12.1269C91.8742 10.815 90.5456 9.73122 89.0438 8.93912L86.8125 7.74849C84.9208 6.73576 82.8083 6.20601 80.6625 6.20631Z" fill="#00623B"/>
<path d="M67.7812 11.0484L96.1312 27.8624L97.8891 22.4859C98.8693 19.4718 98.8181 16.2171 97.7435 13.2354C96.669 10.2537 94.6323 7.71456 91.9547 6.01866L89.7703 4.62648C86.8214 2.74695 83.2944 1.99161 79.8344 2.49856C76.3744 3.00552 73.2124 4.7409 70.9266 7.38741L67.7812 11.0484Z" fill="#E0E0E2"/>
<path d="M96.1313 30.2063C95.7104 30.2076 95.2972 30.0941 94.936 29.8782L66.586 13.0594C66.2916 12.8848 66.0391 12.6478 65.8461 12.3651C65.6531 12.0824 65.5244 11.7609 65.469 11.4231C65.4136 11.0853 65.4329 10.7395 65.5254 10.41C65.618 10.0805 65.7816 9.7752 66.0047 9.51567L69.15 5.85474C71.8111 2.79198 75.4814 0.78405 79.4957 0.194978C83.51 -0.394095 87.6025 0.474679 91.0313 2.6438L93.2203 4.05005C96.334 6.02764 98.7014 8.98474 99.9498 12.4557C101.198 15.9266 101.256 19.7142 100.116 23.2219L98.3578 28.5938C98.2026 29.062 97.9041 29.4697 97.5045 29.759C97.105 30.0484 96.6246 30.2048 96.1313 30.2063ZM71.3813 10.4532L94.8141 24.3563L95.6578 21.7641C96.4766 19.2444 96.4337 16.5239 95.5357 14.0312C94.6378 11.5386 92.936 9.41567 90.6985 7.99692L88.5094 6.59536C86.0318 5.03187 83.0768 4.40592 80.1781 4.83058C77.2794 5.25524 74.6281 6.70252 72.7032 8.91099L71.3813 10.4532Z" fill="#00623B"/>
<path d="M67.6218 10.9031L79.4999 18C76.6355 19.5123 73.8506 21.1708 71.1562 22.9687C67.8159 25.2131 64.6363 27.6878 61.6406 30.375L61.1718 30.4687C60.392 26.9686 60.9083 23.3045 62.6249 20.1562L67.1718 11.8593L67.6218 10.9031Z" fill="#52BF96"/>
<path d="M61.1719 32.8125C60.6384 32.8123 60.1209 32.6301 59.705 32.296C59.2891 31.9619 58.9996 31.4959 58.8844 30.975C57.9878 26.9241 58.5855 22.6856 60.5672 19.0406L65.4984 9.90935C65.637 9.61183 65.8365 9.34671 66.084 9.13118C66.3315 8.91565 66.6215 8.7545 66.9352 8.65817C67.249 8.56183 67.5794 8.53247 67.9052 8.57197C68.2311 8.61147 68.5449 8.71896 68.8266 8.88747L80.7047 15.9844C81.0623 16.1979 81.3565 16.5029 81.557 16.8679C81.7576 17.2329 81.8573 17.6447 81.8458 18.0611C81.8344 18.4774 81.7122 18.8831 81.4918 19.2366C81.2715 19.59 80.961 19.8783 80.5922 20.0718C77.7983 21.5467 75.0822 23.1645 72.4547 24.9187C69.2044 27.0971 66.1137 29.5048 63.2063 32.1234C62.8915 32.4065 62.506 32.5992 62.0906 32.6812L61.6219 32.775C61.4733 32.8009 61.3227 32.8135 61.1719 32.8125ZM68.5594 14.1937L64.6828 21.2812C63.9018 22.7204 63.4097 24.2985 63.2344 25.9265C65.3719 24.1781 67.5563 22.5562 69.8484 21.0234C71.475 19.9406 73.1297 18.9047 74.8078 17.9297L68.5594 14.1937Z" fill="#00623B"/>
<path d="M96.0656 147.656H27.736V129.563H34.636L44.7844 124.781L70.0969 129.563L87.8344 113.639L103.495 131.508C104.729 132.923 105.528 134.665 105.795 136.524C106.063 138.382 105.787 140.279 105.002 141.985C104.218 143.691 102.957 145.133 101.371 146.14C99.7857 147.146 97.9433 147.672 96.0656 147.656Z" fill="white"/>
<path d="M96.0656 150H27.736C27.1144 150 26.5182 149.753 26.0787 149.313C25.6391 148.874 25.3922 148.278 25.3922 147.656V129.562C25.3922 128.941 25.6391 128.345 26.0787 127.905C26.5182 127.466 27.1144 127.219 27.736 127.219H34.111L43.786 122.667C44.2292 122.45 44.7314 122.384 45.2156 122.48L69.3891 127.05L86.2641 111.895C86.4908 111.68 86.7606 111.516 87.0555 111.414C87.3505 111.311 87.6639 111.272 87.975 111.3C88.2838 111.319 88.5857 111.4 88.8633 111.537C89.1409 111.673 89.3886 111.864 89.5922 112.097L105.258 129.97C106.798 131.699 107.8 133.839 108.141 136.129C108.482 138.419 108.148 140.758 107.18 142.861C106.224 145.003 104.663 146.819 102.69 148.087C100.717 149.356 98.416 150.02 96.0703 150H96.0656ZM30.0797 145.312H96.0656C97.5087 145.325 98.9242 144.917 100.139 144.139C101.355 143.361 102.317 142.246 102.909 140.93C103.514 139.648 103.725 138.216 103.517 136.815C103.308 135.413 102.689 134.105 101.738 133.055L87.6328 116.967L71.6578 131.311C71.3901 131.552 71.07 131.729 70.7227 131.825C70.3754 131.922 70.0103 131.937 69.6563 131.869L45.0938 127.228L35.6344 131.681C35.3225 131.83 34.9816 131.909 34.636 131.911H30.0797V145.312Z" fill="#00623B"/>
<path d="M56.6625 45.5062C57.979 45.355 59.3112 45.4135 60.6093 45.6796C62.5068 45.9454 64.3674 46.4282 66.1547 47.1187C68.0115 47.8314 69.7783 48.7596 71.4187 49.8843C76.3593 53.2733 77.7 59.714 78.839 65.2124L78.9468 65.7515C79.4205 68.1664 79.7415 70.6087 79.9078 73.064C80.3437 79.4577 77.4609 83.6249 75.539 89.3484C73.2 96.3234 78.6515 102.956 83.9343 106.926C91.0265 112.251 99.4734 116.086 103.35 124.533C104.016 125.986 106.256 131.976 96.2156 132.455C73.8234 133.514 75.0047 134.423 70.3125 134.011C59.5265 133.059 57.6937 129.684 45.4218 129.281C41.8244 129.123 38.2202 129.217 34.6359 129.562C33.9468 125.625 33.4547 121.875 32.7703 117.933C32.0815 114.036 31.6354 110.1 31.4343 106.148C31.2492 102.44 31.3244 98.7229 31.6593 95.0249C31.986 91.4709 32.5735 87.9458 33.4172 84.478C34.2586 81.0349 35.3442 77.656 36.6656 74.3671C38.0269 70.9951 39.6019 67.7134 41.3812 64.5421C44.2782 59.3684 47.5281 54.4004 51.1078 49.6733C52.1461 48.2117 53.4835 46.9877 55.0312 46.0827C55.5407 45.8046 56.0914 45.61 56.6625 45.5062Z" fill="#52BF96"/>
<path d="M72.3235 136.458C71.5832 136.456 70.8433 136.42 70.1063 136.35C66.198 136.004 62.3436 135.202 58.6219 133.959C54.3422 132.501 49.8627 131.714 45.3422 131.625C41.8668 131.475 38.3851 131.564 34.9219 131.892C34.3236 131.976 33.7163 131.821 33.2307 131.462C32.7451 131.103 32.4199 130.567 32.325 129.97C31.9782 127.988 31.6829 126.052 31.3875 124.12C31.0973 122.189 30.7879 120.261 30.4594 118.336C29.7578 114.344 29.3038 110.313 29.1 106.266C28.9049 102.448 28.9801 98.6212 29.325 94.8141C29.6627 91.1431 30.2706 87.502 31.1438 83.9204C32.0102 80.3718 33.1286 76.8895 34.4907 73.5001C35.8897 70.0355 37.507 66.6631 39.3329 63.4032C42.283 58.1324 45.594 53.0719 49.2422 48.2579C50.475 46.525 52.0696 45.0808 53.9157 44.0251C54.6444 43.6265 55.4327 43.3479 56.25 43.2001C57.6943 42.9901 59.1639 43.0282 60.5954 43.3126C64.9524 43.8739 69.1137 45.4629 72.736 47.9485C78.4875 51.8907 79.9547 59.011 81.1266 64.7391L81.2532 65.3344C81.7431 67.8361 82.075 70.3661 82.2469 72.9094C82.3809 77.3726 81.4082 81.7995 79.4157 85.7954C78.8532 87.1641 78.2719 88.5657 77.761 90.0938C75.4594 96.9657 82.9829 103.275 85.3407 105.047C87.0047 106.299 88.7344 107.456 90.4641 108.619C96.7933 112.062 102.004 117.246 105.478 123.558C106.072 124.673 106.381 125.918 106.378 127.181C106.374 128.445 106.059 129.688 105.459 130.8C104.385 132.168 102.989 133.248 101.396 133.945C99.8025 134.642 98.0616 134.933 96.3282 134.794C84.3282 135.356 79.2282 135.877 76.186 136.186C74.904 136.343 73.6148 136.434 72.3235 136.458ZM41.8219 126.877C43.0032 126.877 44.236 126.895 45.4969 126.938C50.4321 127.04 55.3228 127.895 60 129.474C63.4071 130.62 66.9379 131.36 70.5188 131.677C72.2499 131.835 73.9939 131.783 75.7125 131.522C78.8063 131.208 83.9813 130.688 96.1032 130.116C98.911 129.98 100.861 129.342 101.456 128.367C101.62 127.902 101.684 127.407 101.644 126.915C101.604 126.423 101.46 125.945 101.222 125.513C98.0768 120.007 93.4433 115.501 87.8532 112.509C86.0435 111.32 84.2662 110.082 82.5235 108.797C74.5313 102.797 71.0907 95.2501 73.3219 88.5985C73.8657 86.9766 74.4844 85.4673 75.0891 84.0048C76.7919 80.6704 77.6437 76.9667 77.5688 73.2235C77.4124 70.8657 77.1055 68.5203 76.65 66.2016L76.5422 65.6813C75.4829 60.5298 74.2782 54.6891 70.0875 51.8157C68.6024 50.7956 67.0023 49.9539 65.3204 49.3079C63.6979 48.6804 62.0087 48.2416 60.286 48.0001C59.2339 47.7799 58.155 47.7167 57.0844 47.8126H57.075C56.7499 47.8707 56.4364 47.9815 56.1469 48.1407C54.894 48.8846 53.8151 49.8884 52.9829 51.0844C49.4633 55.7275 46.2682 60.6078 43.4203 65.6907C41.6933 68.775 40.1637 71.9658 38.8407 75.2438C37.5619 78.4298 36.5093 81.702 35.6907 85.036C34.8766 88.3916 34.3094 91.8023 33.9938 95.2407C33.6686 98.8296 33.595 102.437 33.7735 106.036C33.9723 109.89 34.4059 113.728 35.0719 117.53C35.4235 119.517 35.7188 121.467 36.0188 123.403L36.5813 127.036C38.1282 126.928 39.9094 126.877 41.8219 126.877Z" fill="#00623B"/>
<path d="M27.736 147.656V129.562C25.3926 129.542 23.0912 130.185 21.0985 131.419C18.721 133.358 16.8447 135.84 15.6282 138.656C13.2734 142.319 10.1154 145.396 6.3938 147.656H27.736Z" fill="#E0E0E2"/>
<path d="M27.7359 150H6.38905C5.8821 149.999 5.38921 149.833 4.98429 149.528C4.57938 149.223 4.28429 148.795 4.14328 148.308C4.00227 147.821 4.02294 147.302 4.20219 146.827C4.38145 146.353 4.70962 145.95 5.13749 145.678C8.55426 143.594 11.46 140.77 13.6406 137.414C14.0484 136.758 14.4047 136.125 14.7469 135.506C15.877 133.08 17.6263 130.994 19.8187 129.459C22.1778 127.973 24.9149 127.196 27.7031 127.223H27.7359C28.3575 127.223 28.9537 127.47 29.3932 127.91C29.8327 128.349 30.0797 128.945 30.0797 129.567V147.656C30.0797 148.278 29.8327 148.874 29.3932 149.313C28.9537 149.753 28.3575 150 27.7359 150ZM13.1906 145.312H25.3922V132.159C24.3209 132.379 23.2992 132.793 22.3781 133.383C20.8355 134.518 19.617 136.037 18.8437 137.789C18.4533 138.503 18.0437 139.206 17.6156 139.898C16.3682 141.878 14.8821 143.696 13.1906 145.312Z" fill="#00623B"/>
<path d="M64.2 57.0937L86.0766 68.3765L99.5391 50.5593L112.43 51.7453L98.4563 79.2468C96.8534 82.3702 94.0877 84.739 90.7551 85.8428C87.4225 86.9467 83.7896 86.6973 80.6391 85.1484L55.5094 72.8343" fill="#52BF96"/>
<path d="M86.5032 88.8515C84.1146 88.8541 81.7573 88.3089 79.6125 87.2578L54.4782 74.939C53.92 74.6655 53.4933 74.1814 53.292 73.5933C53.0907 73.0052 53.1312 72.3613 53.4047 71.8031C53.6782 71.2449 54.1623 70.8182 54.7504 70.6169C55.3385 70.4156 55.9825 70.4561 56.5407 70.7296L81.6657 83.0437C84.2651 84.317 87.2597 84.5217 90.0082 83.614C92.7567 82.7063 95.0405 80.7584 96.3703 78.1874L108.773 53.7656L100.617 53.0156L87.9516 69.7921C87.6163 70.2328 87.1364 70.5411 86.5963 70.6628C86.0561 70.7846 85.4904 70.712 84.9985 70.4578L63.1266 59.1749C62.574 58.8896 62.1574 58.3965 61.9684 57.804C61.8748 57.5106 61.8399 57.2017 61.8657 56.8948C61.8915 56.588 61.9775 56.2892 62.1188 56.0156C62.2601 55.7419 62.4538 55.4988 62.6891 55.3001C62.9243 55.1014 63.1964 54.9509 63.4897 54.8573C64.0822 54.6683 64.7256 54.7224 65.2782 55.0077L85.3969 65.3859L97.6641 49.1437C97.907 48.828 98.2253 48.5785 98.5897 48.4179C98.9542 48.2574 99.3532 48.191 99.75 48.2249L112.641 49.4109C113.022 49.4457 113.389 49.5735 113.71 49.783C114.03 49.9925 114.295 50.2774 114.48 50.6127C114.665 50.948 114.765 51.3236 114.771 51.7065C114.777 52.0895 114.69 52.4681 114.516 52.8093L100.547 80.3109C99.2206 82.8905 97.2071 85.0534 94.7288 86.5605C92.2505 88.0677 89.4038 88.8606 86.5032 88.8515Z" fill="#00623B"/>
<path d="M100.523 50.6485C101.937 47.6521 103.048 44.5226 103.842 41.3063C104.733 37.7157 109.842 32.7 112.139 33.1313C112.875 39.3114 112.473 45.5741 110.953 51.6094L101.208 50.7141" fill="#E0E0E2"/>
<path d="M110.953 53.9531L110.738 53.9484L100.988 53.0437C100.88 53.0358 100.773 53.0186 100.669 52.9922C100.275 53.0229 99.8795 52.9468 99.525 52.7719C99.2465 52.6411 98.9965 52.4566 98.7894 52.229C98.5823 52.0015 98.4221 51.7353 98.318 51.4457C98.214 51.1562 98.168 50.8489 98.1829 50.5416C98.1978 50.2342 98.2732 49.9328 98.4047 49.6547C99.7497 46.7972 100.81 43.814 101.569 40.7484C102.581 36.6422 108.586 30.0609 112.57 30.825C113.063 30.9145 113.513 31.1602 113.855 31.5257C114.197 31.8913 114.412 32.3573 114.469 32.8547C114.877 36.2957 114.949 39.7684 114.684 43.2234C114.457 46.2491 113.968 49.2494 113.222 52.1906C113.094 52.6954 112.801 53.1431 112.39 53.4631C111.98 53.7831 111.474 53.9524 110.953 53.9531ZM103.959 48.6094L109.13 49.0922C109.56 47.0404 109.855 44.9625 110.011 42.8719C110.175 40.7382 110.197 38.5959 110.077 36.4594C108.3 37.8765 106.934 39.7423 106.12 41.864C105.554 44.1605 104.832 46.4157 103.959 48.614V48.6094Z" fill="#00623B"/>
</g>
<defs>
<clipPath id="clip0_729_173">
<rect width="150" height="150" fill="white"/>
</clipPath>
</defs>
</svg>
