<svg width="150" height="150" viewBox="0 0 150 150" fill="none" xmlns="http://www.w3.org/2000/svg">
<g clip-path="url(#clip0_729_192)">
<path fill-rule="evenodd" clip-rule="evenodd" d="M62.6509 78.8485C46.4161 65.6364 27.9145 65.7576 19.5826 66.6667L38.4212 21.697C43.4754 22.1818 58.3625 24.5758 62.6509 35.6364V78.8485ZM2 81.0606C13.5175 79.4545 44.8845 77.8182 71.5648 101V31.5455C64.5501 12.9394 39.0032 9.57576 32.2029 9L2 81.0606ZM128.448 66.6667C120.147 65.7576 101.645 65.6364 85.4103 78.8485V35.6061C89.6988 24.5758 104.586 22.1818 109.609 21.6667L128.448 66.6667ZM76.4659 31.5455V101C103.177 77.8182 134.544 79.4849 146 81.0606L115.889 9C109.058 9.57576 83.5112 12.9394 76.4659 31.5455Z" fill="#52BF96"/>
<path d="M119.111 132.87C119.57 133.229 119.877 133.746 119.97 134.319C120.063 134.893 119.936 135.48 119.614 135.964C119.292 136.448 118.799 136.794 118.233 136.933C117.666 137.072 117.068 136.993 116.557 136.713L73.0145 108.081L29.4431 136.713C28.9321 136.993 28.3339 137.072 27.7673 136.933C27.2008 136.794 26.7075 136.448 26.3856 135.964C26.0636 135.48 25.9366 134.893 26.0298 134.319C26.123 133.746 26.4296 133.229 26.8886 132.87C41.3737 123.336 59.5164 111.75 71.6792 103.4C72.0644 103.139 72.5196 103 72.9855 103C73.4514 103 73.9065 103.139 74.2918 103.4L119.111 132.87Z" fill="#00623B"/>
<path d="M75.7887 100.297C101.886 77.9842 132.532 79.5884 143.725 81.1051L114.306 11.7449C107.632 12.2991 82.7021 15.5367 75.8186 33.4455L75.7887 100.297ZM147.077 86.4136C146.957 86.3844 106.495 76.7883 75.1902 107.21C74.8683 107.566 74.443 107.817 73.9708 107.931C73.4985 108.046 73.0018 108.017 72.5468 107.849C72.0918 107.681 71.7 107.382 71.4237 106.992C71.1475 106.601 70.9997 106.138 71.0002 105.664V33.0955C70.996 32.8069 71.0468 32.5201 71.1499 32.2496C79.5596 9.20732 112.63 7.16559 115.503 7.01975C116.022 6.9536 116.548 7.05464 117.002 7.30744C117.456 7.56025 117.812 7.95092 118.017 8.41979L115.802 9.32398L118.017 8.44896L149.741 83.0885C149.948 83.4858 150.034 83.9326 149.988 84.3759C149.943 84.8193 149.768 85.2407 149.485 85.5905C149.202 85.9402 148.822 86.2035 148.39 86.3494C147.958 86.4953 147.522 86.5175 147.077 86.4136Z" fill="#00623B"/>
<path d="M85.1379 78.9835C100.53 66.2697 118.07 66.3864 125.94 67.2612L108.08 23.9879C103.317 24.4545 89.2036 26.7581 85.1379 37.4015V78.9835ZM129.135 72.4808C129.077 72.4808 103.985 66.3572 84.5571 85.7485C84.2465 86.1023 83.8364 86.3532 83.3809 86.4681C82.9254 86.5831 82.4458 86.5567 82.0056 86.3925C81.5653 86.2283 81.1849 85.934 80.9146 85.5483C80.6443 85.1627 80.4967 84.7038 80.4914 84.2322V36.9932C80.4815 36.7163 80.5208 36.4398 80.6075 36.1768C86.0382 20.897 107.006 19.3515 109.3 19.2349C109.803 19.1687 110.314 19.2697 110.754 19.5225C111.195 19.7752 111.541 20.1658 111.739 20.6345L109.59 21.5385L111.739 20.6637L131.748 69.1566C131.949 69.5538 132.033 70.0004 131.989 70.4437C131.945 70.8869 131.775 71.3082 131.5 71.6579C131.225 72.0075 130.857 72.2708 130.437 72.4166C130.018 72.5624 129.566 72.5847 129.135 72.4808ZM72.5923 107.181C42.2156 76.7965 2.98141 86.3901 2.86524 86.4192C2.43386 86.5231 1.98186 86.5009 1.56268 86.355C1.1435 86.2092 0.774666 85.9459 0.499776 85.5963C0.224885 85.2467 0.0554329 84.8253 0.0114486 84.3821C-0.0325357 83.9388 0.0507875 83.4922 0.251569 83.095L31.0348 8.44571L33.1839 9.34967L31.0348 8.47488C31.2237 7.99527 31.5656 7.59204 32.007 7.32824C32.4484 7.06445 32.9643 6.95495 33.4743 7.01688C36.2912 7.16268 68.3523 9.2622 76.5418 32.2693C76.632 32.5416 76.6714 32.8283 76.658 33.115V105.665C76.6585 106.139 76.5151 106.602 76.247 106.992C75.9789 107.382 75.5988 107.681 75.1573 107.849C74.7157 108.017 74.2338 108.046 73.7755 107.931C73.3173 107.817 72.9045 107.537 72.5923 107.181ZM6.08877 81.083C16.9791 79.5375 46.7169 77.9629 72.0115 100.27V33.4649C65.3611 15.5607 41.1411 12.324 34.694 11.7699L6.08877 81.1121V81.083Z" fill="#00623B"/>
<path d="M63.9765 85.2431C44.7222 65.8945 19.9216 71.9863 19.8353 72.0153C19.4085 72.1187 18.9612 72.0965 18.5464 71.9514C18.1316 71.8064 17.7666 71.5444 17.4946 71.1966C17.2225 70.8488 17.0549 70.4297 17.0113 69.9887C16.9678 69.5478 17.0503 69.1035 17.2489 68.7083L37.078 20.4672C37.2649 19.9901 37.6032 19.589 38.04 19.3265C38.4767 19.0641 38.9873 18.9552 39.4919 19.0168C41.791 19.1618 62.4821 20.6993 67.8561 35.8997C67.9551 36.1688 68.0038 36.454 67.9998 36.741V83.7057C67.9945 84.1748 67.8485 84.6313 67.581 85.015C67.3135 85.3986 66.9371 85.6914 66.5014 85.8548C66.0657 86.0181 65.5912 86.0444 65.1404 85.93C64.6897 85.8156 64.2839 85.595 63.9765 85.2431ZM22.9965 66.8228C30.8132 65.9525 48.142 65.8365 63.4017 78.4842V37.0891C59.3785 26.53 45.4119 24.2383 40.6989 23.7452L22.9965 66.8228Z" fill="#00623B"/>
<path fill-rule="evenodd" clip-rule="evenodd" d="M85.8858 36.4075V78C101.395 65.292 119.07 65.4086 127 66.283L109.003 23.0291C104.204 23.4955 89.9826 25.7689 85.8858 36.4075ZM64.1435 78V36.4075C60.0467 25.7981 45.825 23.4955 41.0259 23L23 66.283C30.9595 65.4086 48.605 65.292 64.1435 78Z" fill="#E0E0E0"/>
</g>
<defs>
<clipPath id="clip0_729_192">
<rect width="150" height="150" fill="white"/>
</clipPath>
</defs>
</svg>
