<svg width="150" height="150" viewBox="0 0 150 150" fill="none" xmlns="http://www.w3.org/2000/svg">
<path d="M127.748 94.9078L144.342 78.3141C145.221 77.4351 145.715 76.243 145.715 75C145.715 73.7571 145.221 72.565 144.342 71.686L127.748 55.0922C126.869 54.2133 126.375 53.0212 126.375 51.7781V28.3125C126.375 27.0693 125.881 25.877 125.002 24.998C124.123 24.1189 122.931 23.625 121.688 23.625H98.2219C96.9788 23.6248 95.7867 23.1307 94.9078 22.2516L78.3141 5.65784C77.4351 4.77907 76.243 4.2854 75 4.2854C73.7571 4.2854 72.565 4.77907 71.686 5.65784L55.0922 22.2516C54.2133 23.1307 53.0212 23.6248 51.7781 23.625H28.3125C27.0693 23.625 25.877 24.1189 24.998 24.998C24.1189 25.877 23.625 27.0693 23.625 28.3125V51.7781C23.6248 53.0212 23.1307 54.2133 22.2516 55.0922L5.65784 71.686C4.77907 72.565 4.2854 73.7571 4.2854 75C4.2854 76.243 4.77907 77.4351 5.65784 78.3141L22.2516 94.9078C23.1307 95.7867 23.6248 96.9788 23.625 98.2219V121.688C23.625 122.931 24.1189 124.123 24.998 125.002C25.877 125.881 27.0693 126.375 28.3125 126.375H51.7781C53.0212 126.375 54.2133 126.869 55.0922 127.748L71.686 144.342C72.565 145.221 73.7571 145.715 75 145.715C76.243 145.715 77.4351 145.221 78.3141 144.342L94.9078 127.748C95.7867 126.869 96.9788 126.375 98.2219 126.375H121.688C122.931 126.375 124.123 125.881 125.002 125.002C125.881 124.123 126.375 122.931 126.375 121.688V98.2219C126.375 96.9788 126.869 95.7867 127.748 94.9078Z" fill="#52BF96"/>
<path d="M75 148.055C74.0775 148.056 73.1638 147.875 72.3112 147.523C71.4586 147.171 70.6839 146.654 70.0313 146.002L53.4375 129.408C52.9965 128.969 52.4003 128.721 51.7782 128.719H28.3125C26.4485 128.716 24.6615 127.975 23.3434 126.657C22.0253 125.339 21.2838 123.552 21.2813 121.688V98.2219C21.2817 97.9146 21.2215 97.6103 21.1041 97.3263C20.9866 97.0424 20.8143 96.7844 20.5969 96.5672L4.00315 79.9735C2.68471 78.6541 1.94409 76.8652 1.94409 75C1.94409 73.1348 2.68471 71.3459 4.00315 70.0266L20.5969 53.4328C21.0337 52.9927 21.2796 52.3982 21.2813 51.7781V28.3125C21.2838 26.4485 22.0253 24.6615 23.3434 23.3434C24.6615 22.0253 26.4485 21.2838 28.3125 21.2813H51.7782C52.3982 21.2796 52.9927 21.0337 53.4328 20.5969L70.0266 4.00315C71.3459 2.68471 73.1348 1.94409 75 1.94409C76.8652 1.94409 78.6541 2.68471 79.9735 4.00315L96.5672 20.5969C96.7844 20.8143 97.0424 20.9866 97.3263 21.1041C97.6103 21.2215 97.9146 21.2817 98.2219 21.2813H121.688C123.552 21.2838 125.339 22.0253 126.657 23.3434C127.975 24.6615 128.716 26.4485 128.719 28.3125V51.7781C128.721 52.398 128.967 52.9922 129.403 53.4328L145.997 70.0266C147.315 71.3459 148.056 73.1348 148.056 75C148.056 76.8652 147.315 78.6541 145.997 79.9735L129.403 96.5672C129.185 96.7841 129.013 97.042 128.895 97.326C128.778 97.6101 128.718 97.9145 128.719 98.2219V121.688C128.716 123.552 127.975 125.339 126.657 126.657C125.339 127.975 123.552 128.716 121.688 128.719H98.2219C97.9146 128.718 97.6101 128.778 97.326 128.895C97.042 129.013 96.7841 129.185 96.5672 129.403L79.9735 145.997C79.3207 146.65 78.5454 147.168 77.6919 147.522C76.8384 147.875 75.9237 148.056 75 148.055ZM28.3125 25.9688C27.6909 25.9688 27.0948 26.2157 26.6552 26.6552C26.2157 27.0948 25.9688 27.6909 25.9688 28.3125V51.7781C25.9705 52.7016 25.7891 53.6162 25.4351 54.4691C25.0811 55.3219 24.5615 56.0962 23.9063 56.7469L7.31252 73.3406C6.87314 73.7802 6.62631 74.3762 6.62631 74.9977C6.62631 75.6192 6.87314 76.2152 7.31252 76.6547L23.9063 93.2485C24.562 93.8998 25.082 94.6747 25.436 95.5285C25.7901 96.3822 25.9712 97.2977 25.9688 98.2219V121.688C25.9688 122.309 26.2157 122.905 26.6552 123.345C27.0948 123.784 27.6909 124.031 28.3125 124.031H51.7782C52.7016 124.03 53.6162 124.211 54.4691 124.565C55.322 124.919 56.0962 125.439 56.7469 126.094L73.3407 142.688C73.7802 143.127 74.3762 143.374 74.9977 143.374C75.6192 143.374 76.2152 143.127 76.6547 142.688L93.2485 126.094C93.8998 125.438 94.6747 124.918 95.5285 124.564C96.3822 124.21 97.2977 124.029 98.2219 124.031H121.688C122.309 124.03 122.904 123.783 123.343 123.343C123.783 122.904 124.03 122.309 124.031 121.688V98.2219C124.03 97.2985 124.211 96.3839 124.565 95.531C124.919 94.6781 125.439 93.9039 126.094 93.2531L142.688 76.6594C143.127 76.2199 143.374 75.6238 143.374 75.0024C143.374 74.3809 143.127 73.7849 142.688 73.3453L126.094 56.7516C125.438 56.1003 124.918 55.3253 124.564 54.4716C124.21 53.6179 124.029 52.7024 124.031 51.7781V28.3125C124.031 27.6909 123.784 27.0948 123.345 26.6552C122.905 26.2157 122.309 25.9688 121.688 25.9688H98.2219C97.2985 25.9705 96.3839 25.7891 95.531 25.4351C94.6781 25.0811 93.9039 24.5615 93.2532 23.9063L76.6594 7.31252C76.2199 6.87314 75.6239 6.62631 75.0024 6.62631C74.3809 6.62631 73.7849 6.87314 73.3453 7.31252L56.7516 23.9063C56.1003 24.562 55.3253 25.082 54.4716 25.436C53.6179 25.7901 52.7024 25.9711 51.7782 25.9688H28.3125Z" fill="#2C2B2D"/>
<path d="M65.0345 117.806C63.2981 116.059 61.2324 114.674 58.9569 113.731C56.6814 112.788 54.2414 112.306 51.7782 112.313H37.6876V98.222C37.6945 95.7588 37.2125 93.3187 36.2695 91.0432C35.3264 88.7677 33.9411 86.7019 32.1938 84.9657L22.2329 75.0001L32.1938 65.0345C33.9409 63.2981 35.3261 61.2324 36.2691 58.9569C37.2121 56.6814 37.6943 54.2414 37.6876 51.7782V37.6876H51.7782C54.2414 37.6943 56.6814 37.2121 58.9569 36.2691C61.2324 35.3261 63.2981 33.9409 65.0345 32.1938L75.0001 22.2329L84.9657 32.1938C86.7019 33.9411 88.7677 35.3264 91.0432 36.2695C93.3187 37.2125 95.7588 37.6945 98.222 37.6876H112.313V51.7782C112.306 54.2414 112.788 56.6814 113.731 58.9569C114.674 61.2324 116.059 63.2981 117.806 65.0345L127.772 75.0001L117.806 84.9657C116.059 86.7019 114.674 88.7677 113.731 91.0432C112.788 93.3187 112.306 95.7588 112.313 98.222V112.313H98.222C95.7588 112.306 93.3187 112.788 91.0432 113.731C88.7677 114.674 86.7019 116.059 84.9657 117.806L75.0001 127.772L65.0345 117.806Z" fill="#E0E0E2"/>
<path d="M75 130.116C74.6916 130.116 74.3862 130.055 74.1013 129.937C73.8165 129.819 73.558 129.645 73.3406 129.427L63.375 119.461C61.8557 117.933 60.0484 116.722 58.0578 115.897C56.0672 115.072 53.9328 114.651 51.7781 114.656H37.6875C37.0659 114.656 36.4697 114.409 36.0302 113.97C35.5907 113.53 35.3437 112.934 35.3437 112.312V98.2219C35.3506 96.0663 34.9294 93.9309 34.1046 91.9393C33.2799 89.9478 32.0679 88.1399 30.5391 86.6203L20.5734 76.6547C20.134 76.2152 19.8872 75.6191 19.8872 74.9976C19.8872 74.3762 20.134 73.7801 20.5734 73.3406L30.5391 63.375C32.0669 61.8557 33.2783 60.0484 34.103 58.0578C34.9277 56.0672 35.3494 53.9328 35.3437 51.7781V37.6875C35.3437 37.0659 35.5907 36.4697 36.0302 36.0302C36.4697 35.5907 37.0659 35.3437 37.6875 35.3437H51.7781C53.9336 35.3501 56.0689 34.9286 58.0603 34.1039C60.0518 33.2792 61.8598 32.0675 63.3797 30.5391L73.3453 20.5734C73.7848 20.134 74.3809 19.8872 75.0023 19.8872C75.6238 19.8872 76.2198 20.134 76.6594 20.5734L86.625 30.5391C88.144 32.0673 89.9512 33.279 91.9419 34.1037C93.9325 34.9285 96.0671 35.35 98.2219 35.3437H112.312C112.934 35.3437 113.53 35.5907 113.97 36.0302C114.409 36.4697 114.656 37.0659 114.656 37.6875V51.7781C114.65 53.9336 115.071 56.0689 115.896 58.0603C116.721 60.0518 117.932 61.8598 119.461 63.3797L129.427 73.3453C129.866 73.7848 130.113 74.3809 130.113 75.0023C130.113 75.6238 129.866 76.2198 129.427 76.6594L119.461 86.625C117.933 88.144 116.721 89.9512 115.896 91.9419C115.071 93.9325 114.65 96.0671 114.656 98.2219V112.312C114.656 112.934 114.409 113.53 113.97 113.97C113.53 114.409 112.934 114.656 112.312 114.656H98.2219C96.0663 114.649 93.9309 115.071 91.9393 115.895C89.9478 116.72 88.1398 117.932 86.6203 119.461L76.6547 129.427C76.4379 129.645 76.1801 129.818 75.8961 129.936C75.6121 130.054 75.3076 130.115 75 130.116ZM66.6937 116.147L75 124.458L83.3062 116.147C85.2599 114.181 87.5843 112.623 90.1447 111.562C92.7051 110.502 95.4505 109.96 98.2219 109.969H109.969V98.2219C109.96 95.4505 110.502 92.7051 111.562 90.1447C112.623 87.5843 114.181 85.2599 116.147 83.3062L124.458 75L116.147 66.6937C114.181 64.7401 112.623 62.4157 111.562 59.8553C110.502 57.2949 109.96 54.5494 109.969 51.7781V40.0312H98.2219C95.4505 40.0403 92.7048 39.4988 90.1444 38.4382C87.5839 37.3777 85.2596 35.8192 83.3062 33.8531L75 25.5469L66.6937 33.8531C64.7398 35.8183 62.4153 37.3763 59.855 38.4368C57.2947 39.4973 54.5494 40.0392 51.7781 40.0312H40.0312V51.7781C40.0392 54.5494 39.4973 57.2947 38.4368 59.855C37.3763 62.4153 35.8183 64.7398 33.8531 66.6937L25.5469 75L33.8531 83.3062C35.8192 85.2596 37.3777 87.5839 38.4382 90.1444C39.4988 92.7049 40.0403 95.4505 40.0312 98.2219V109.969H51.7781C54.5494 109.96 57.2949 110.502 59.8553 111.562C62.4157 112.623 64.7401 114.181 66.6937 116.147Z" fill="#00623B"/>
<path d="M75 148.055C74.0775 148.056 73.1638 147.875 72.3112 147.523C71.4586 147.171 70.6839 146.654 70.0313 146.002L53.4375 129.408C52.9965 128.969 52.4003 128.721 51.7782 128.719H28.3125C26.4485 128.716 24.6615 127.975 23.3434 126.657C22.0253 125.339 21.2838 123.552 21.2813 121.688V98.2219C21.2817 97.9146 21.2215 97.6103 21.1041 97.3263C20.9866 97.0424 20.8143 96.7844 20.5969 96.5672L4.00315 79.9735C2.68471 78.6541 1.94409 76.8652 1.94409 75C1.94409 73.1348 2.68471 71.3459 4.00315 70.0266L20.5969 53.4328C21.0337 52.9927 21.2796 52.3982 21.2813 51.7781V28.3125C21.2838 26.4485 22.0253 24.6615 23.3434 23.3434C24.6615 22.0253 26.4485 21.2838 28.3125 21.2813H51.7782C52.3982 21.2796 52.9927 21.0337 53.4328 20.5969L70.0266 4.00315C71.3459 2.68471 73.1348 1.94409 75 1.94409C76.8652 1.94409 78.6541 2.68471 79.9735 4.00315L96.5672 20.5969C96.7844 20.8143 97.0424 20.9866 97.3263 21.1041C97.6103 21.2215 97.9146 21.2817 98.2219 21.2813H121.688C123.552 21.2838 125.339 22.0253 126.657 23.3434C127.975 24.6615 128.716 26.4485 128.719 28.3125V51.7781C128.721 52.398 128.967 52.9922 129.403 53.4328L145.997 70.0266C147.315 71.3459 148.056 73.1348 148.056 75C148.056 76.8652 147.315 78.6541 145.997 79.9735L129.403 96.5672C129.185 96.7841 129.013 97.042 128.895 97.326C128.778 97.6101 128.718 97.9145 128.719 98.2219V121.688C128.716 123.552 127.975 125.339 126.657 126.657C125.339 127.975 123.552 128.716 121.688 128.719H98.2219C97.9146 128.718 97.6101 128.778 97.326 128.895C97.042 129.013 96.7841 129.185 96.5672 129.403L79.9735 145.997C79.3207 146.65 78.5454 147.168 77.6919 147.522C76.8384 147.875 75.9237 148.056 75 148.055ZM28.3125 25.9688C27.6909 25.9688 27.0948 26.2157 26.6552 26.6552C26.2157 27.0948 25.9688 27.6909 25.9688 28.3125V51.7781C25.9705 52.7016 25.7891 53.6162 25.4351 54.4691C25.0811 55.3219 24.5615 56.0962 23.9063 56.7469L7.31252 73.3406C6.87314 73.7802 6.62631 74.3762 6.62631 74.9977C6.62631 75.6192 6.87314 76.2152 7.31252 76.6547L23.9063 93.2485C24.562 93.8998 25.082 94.6747 25.436 95.5285C25.7901 96.3822 25.9712 97.2977 25.9688 98.2219V121.688C25.9688 122.309 26.2157 122.905 26.6552 123.345C27.0948 123.784 27.6909 124.031 28.3125 124.031H51.7782C52.7016 124.03 53.6162 124.211 54.4691 124.565C55.322 124.919 56.0962 125.439 56.7469 126.094L73.3407 142.688C73.7802 143.127 74.3762 143.374 74.9977 143.374C75.6192 143.374 76.2152 143.127 76.6547 142.688L93.2485 126.094C93.8998 125.438 94.6747 124.918 95.5285 124.564C96.3822 124.21 97.2977 124.029 98.2219 124.031H121.688C122.309 124.03 122.904 123.783 123.343 123.343C123.783 122.904 124.03 122.309 124.031 121.688V98.2219C124.03 97.2985 124.211 96.3839 124.565 95.531C124.919 94.6781 125.439 93.9039 126.094 93.2531L142.688 76.6594C143.127 76.2199 143.374 75.6238 143.374 75.0024C143.374 74.3809 143.127 73.7849 142.688 73.3453L126.094 56.7516C125.438 56.1003 124.918 55.3253 124.564 54.4716C124.21 53.6179 124.029 52.7024 124.031 51.7781V28.3125C124.031 27.6909 123.784 27.0948 123.345 26.6552C122.905 26.2157 122.309 25.9688 121.688 25.9688H98.2219C97.2985 25.9705 96.3839 25.7891 95.531 25.4351C94.6781 25.0811 93.9039 24.5615 93.2532 23.9063L76.6594 7.31252C76.2199 6.87314 75.6239 6.62631 75.0024 6.62631C74.3809 6.62631 73.7849 6.87314 73.3453 7.31252L56.7516 23.9063C56.1003 24.562 55.3253 25.082 54.4716 25.436C53.6179 25.7901 52.7024 25.9711 51.7782 25.9688H28.3125Z" fill="#00623B"/>
<path d="M65.542 92C65.15 90.432 64.8233 88.8803 64.562 87.345C64.3333 85.8097 64.1373 84.2907 63.974 82.788C63.8107 81.2527 63.6637 79.7173 63.533 78.182C63.4023 76.6467 63.2717 75.095 63.141 73.527C63.0757 72.4817 62.9777 71.5343 62.847 70.685C62.749 69.8357 62.602 69.0843 62.406 68.431C62.21 67.7777 61.965 67.2223 61.671 66.765C61.377 66.3077 61.0177 65.9647 60.593 65.736C60.201 65.5073 59.7273 65.393 59.172 65.393C58.584 65.393 58.045 65.5237 57.555 65.785C57.0977 66.0463 56.7383 66.422 56.477 66.912C56.2157 67.402 56.085 67.99 56.085 68.676C56.085 69.362 56.232 69.9663 56.526 70.489C56.82 71.0117 57.261 71.42 57.849 71.714C58.437 71.9753 59.1557 72.106 60.005 72.106C60.7237 72.106 61.5403 72.008 62.455 71.812C63.4023 71.616 64.366 71.3057 65.346 70.881L66.326 77.3C65.1173 77.8227 63.925 78.2147 62.749 78.476C61.573 78.7373 60.397 78.868 59.221 78.868C57.2283 78.868 55.4807 78.525 53.978 77.839C52.4753 77.153 51.2993 76.124 50.45 74.752C49.6333 73.38 49.225 71.6977 49.225 69.705C49.225 67.6797 49.666 65.834 50.548 64.168C51.4627 62.4693 52.7203 61.13 54.321 60.15C55.9543 59.1373 57.8327 58.631 59.956 58.631C61.8507 58.631 63.4187 59.0067 64.66 59.758C65.934 60.4767 66.9303 61.4893 67.649 62.796C68.3677 64.07 68.8903 65.54 69.217 67.206C69.5763 68.8393 69.805 70.587 69.903 72.449C70.0663 74.507 70.197 76.3527 70.295 77.986C70.4257 79.5867 70.5563 81.1057 70.687 82.543C70.8177 83.9477 70.981 85.336 71.177 86.708C71.373 88.08 71.6343 89.5337 71.961 91.069L65.542 92ZM92.1953 92C91.8033 90.432 91.4767 88.8803 91.2153 87.345C90.9867 85.8097 90.7907 84.2907 90.6273 82.788C90.464 81.2527 90.317 79.7173 90.1863 78.182C90.0557 76.6467 89.925 75.095 89.7943 73.527C89.729 72.4817 89.631 71.5343 89.5003 70.685C89.4023 69.8357 89.2553 69.0843 89.0593 68.431C88.8633 67.7777 88.6183 67.2223 88.3243 66.765C88.0303 66.3077 87.671 65.9647 87.2463 65.736C86.8543 65.5073 86.3807 65.393 85.8253 65.393C85.2373 65.393 84.6983 65.5237 84.2083 65.785C83.751 66.0463 83.3917 66.422 83.1303 66.912C82.869 67.402 82.7383 67.99 82.7383 68.676C82.7383 69.362 82.8853 69.9663 83.1793 70.489C83.4733 71.0117 83.9143 71.42 84.5023 71.714C85.0903 71.9753 85.809 72.106 86.6583 72.106C87.377 72.106 88.1937 72.008 89.1083 71.812C90.0557 71.616 91.0193 71.3057 91.9993 70.881L92.9793 77.3C91.7707 77.8227 90.5783 78.2147 89.4023 78.476C88.2263 78.7373 87.0503 78.868 85.8743 78.868C83.8817 78.868 82.134 78.525 80.6313 77.839C79.1287 77.153 77.9527 76.124 77.1033 74.752C76.2867 73.38 75.8783 71.6977 75.8783 69.705C75.8783 67.6797 76.3193 65.834 77.2013 64.168C78.116 62.4693 79.3737 61.13 80.9743 60.15C82.6077 59.1373 84.486 58.631 86.6093 58.631C88.504 58.631 90.072 59.0067 91.3133 59.758C92.5873 60.4767 93.5837 61.4893 94.3023 62.796C95.021 64.07 95.5437 65.54 95.8703 67.206C96.2297 68.8393 96.4583 70.587 96.5563 72.449C96.7197 74.507 96.8503 76.3527 96.9483 77.986C97.079 79.5867 97.2097 81.1057 97.3403 82.543C97.471 83.9477 97.6343 85.336 97.8303 86.708C98.0263 88.08 98.2877 89.5337 98.6143 91.069L92.1953 92Z" fill="#00623B"/>
</svg>
